<mxfile host="app.diagrams.net" agent="Mozilla/5.0 (Windows NT 10.0; Win64; x64) AppleWebKit/537.36 (KHTML, like Gecko) Chrome/128.0.0.0 Safari/537.36" version="24.7.10">
  <diagram name="Page-1" id="W2wKhsiWZYQO21Wt9MzV">
    <mxGraphModel dx="1050" dy="583" grid="1" gridSize="10" guides="1" tooltips="1" connect="1" arrows="1" fold="1" page="1" pageScale="1" pageWidth="850" pageHeight="1100" math="0" shadow="0">
      <root>
        <mxCell id="0" />
        <mxCell id="1" parent="0" />
        <mxCell id="vPUxcMvmtv4Ck2IGcJZG-1" value="&lt;b&gt;INFRA&lt;/b&gt;" style="rounded=0;whiteSpace=wrap;html=1;fillColor=#dae8fc;gradientColor=#7ea6e0;strokeColor=#6c8ebf;" vertex="1" parent="1">
          <mxGeometry x="80" y="160" width="310" height="60" as="geometry" />
        </mxCell>
        <mxCell id="vPUxcMvmtv4Ck2IGcJZG-2" value="&lt;b&gt;Business&lt;/b&gt;" style="rounded=1;whiteSpace=wrap;html=1;fillColor=#d5e8d4;gradientColor=#97d077;strokeColor=#82b366;" vertex="1" parent="1">
          <mxGeometry x="80" width="90" height="160" as="geometry" />
        </mxCell>
        <mxCell id="vPUxcMvmtv4Ck2IGcJZG-3" value="&#xa;&lt;b style=&quot;forced-color-adjust: none; color: rgb(0, 0, 0); font-family: Helvetica; font-size: 12px; font-style: normal; font-variant-ligatures: normal; font-variant-caps: normal; letter-spacing: normal; orphans: 2; text-align: center; text-indent: 0px; text-transform: none; widows: 2; word-spacing: 0px; -webkit-text-stroke-width: 0px; white-space: normal; background-color: rgb(251, 251, 251); text-decoration-thickness: initial; text-decoration-style: initial; text-decoration-color: initial;&quot;&gt;Business&lt;/b&gt;&#xa;&#xa;" style="rounded=1;whiteSpace=wrap;html=1;fillColor=#d5e8d4;gradientColor=#97d077;strokeColor=#82b366;" vertex="1" parent="1">
          <mxGeometry x="190" width="90" height="160" as="geometry" />
        </mxCell>
        <mxCell id="vPUxcMvmtv4Ck2IGcJZG-4" value="&#xa;&lt;b style=&quot;forced-color-adjust: none; color: rgb(0, 0, 0); font-family: Helvetica; font-size: 12px; font-style: normal; font-variant-ligatures: normal; font-variant-caps: normal; letter-spacing: normal; orphans: 2; text-align: center; text-indent: 0px; text-transform: none; widows: 2; word-spacing: 0px; -webkit-text-stroke-width: 0px; white-space: normal; background-color: rgb(251, 251, 251); text-decoration-thickness: initial; text-decoration-style: initial; text-decoration-color: initial;&quot;&gt;Business&lt;/b&gt;&#xa;&#xa;" style="rounded=1;whiteSpace=wrap;html=1;fillColor=#d5e8d4;gradientColor=#97d077;strokeColor=#82b366;" vertex="1" parent="1">
          <mxGeometry x="300" width="90" height="160" as="geometry" />
        </mxCell>
        <mxCell id="vPUxcMvmtv4Ck2IGcJZG-5" value="&lt;b&gt;INFRA&lt;/b&gt;" style="rounded=0;whiteSpace=wrap;html=1;fillColor=#f8cecc;gradientColor=#ea6b66;strokeColor=#b85450;" vertex="1" parent="1">
          <mxGeometry x="460" y="160" width="310" height="60" as="geometry" />
        </mxCell>
        <mxCell id="vPUxcMvmtv4Ck2IGcJZG-6" value="&lt;b&gt;Applications&lt;/b&gt;" style="rounded=1;whiteSpace=wrap;html=1;fillColor=#d5e8d4;gradientColor=#97d077;strokeColor=#82b366;" vertex="1" parent="1">
          <mxGeometry x="460" width="90" height="160" as="geometry" />
        </mxCell>
        <mxCell id="vPUxcMvmtv4Ck2IGcJZG-7" value="&lt;b&gt;Applications&lt;/b&gt;" style="rounded=1;whiteSpace=wrap;html=1;fillColor=#d5e8d4;gradientColor=#97d077;strokeColor=#82b366;" vertex="1" parent="1">
          <mxGeometry x="570" width="90" height="160" as="geometry" />
        </mxCell>
        <mxCell id="vPUxcMvmtv4Ck2IGcJZG-8" value="&lt;b&gt;Applications&lt;/b&gt;" style="rounded=1;whiteSpace=wrap;html=1;fillColor=#d5e8d4;gradientColor=#97d077;strokeColor=#82b366;" vertex="1" parent="1">
          <mxGeometry x="680" width="90" height="160" as="geometry" />
        </mxCell>
        <mxCell id="vPUxcMvmtv4Ck2IGcJZG-9" value="" style="sketch=0;aspect=fixed;pointerEvents=1;shadow=0;dashed=0;html=1;strokeColor=none;labelPosition=center;verticalLabelPosition=bottom;verticalAlign=top;align=center;fillColor=#00188D;shape=mxgraph.azure.laptop" vertex="1" parent="1">
          <mxGeometry x="50" y="410" width="358.33" height="215" as="geometry" />
        </mxCell>
        <mxCell id="vPUxcMvmtv4Ck2IGcJZG-18" style="edgeStyle=orthogonalEdgeStyle;rounded=0;orthogonalLoop=1;jettySize=auto;html=1;flowAnimation=1;" edge="1" parent="1" source="vPUxcMvmtv4Ck2IGcJZG-10" target="vPUxcMvmtv4Ck2IGcJZG-14">
          <mxGeometry relative="1" as="geometry" />
        </mxCell>
        <mxCell id="vPUxcMvmtv4Ck2IGcJZG-10" value="" style="shape=image;verticalLabelPosition=bottom;labelBackgroundColor=default;verticalAlign=top;aspect=fixed;imageAspect=0;image=data:image/png,iVBORw0KGgoAAAANSUhEUgAAAO8AAADxCAYAAAAjrOBSAAAAAXNSR0IArs4c6QAAAARnQU1BAACxjwv8YQUAAAAJcEhZcwAADsMAAA7DAcdvqGQAAKgdSURBVHhe7f13kGXXfSYIftc/m7a8r0LBe0sYWkA0opFIyrXYZtq3oiV1TO/GzMTGbih6I3b+393QxG50z2zPdKvlKdGIBoQIgiBBEr4AVBUKrrxPn89ev9937ntZWZVlEmABlVV4v8zzrj/33HN+388ca23dujXHgAY0oKuO7N52QAMa0FVGA/AOaEBXKQ3AO6ABXaU0AO+ABnSV0gC8AxrQVUoD8A5oQFcpLbup6Dd+4zfwqU99CrfddhtWr14Nx3F6Vwb0YaY8Xw77WOY3SiJkdg6bvGMZvZEjiSNYSQ7fcpE6HjqWhZoLOIkeYIiBJAOajGKC+5Mh98Mu8jRE1fdRD0oMfMYHSgHg89mMSYrTBKlrI7Ns8BQ8hPDzGI7Sm9tIcgdh5iJm8MjKVd6U8r6U7+l/kVIoLi+eYSKY6pzpWw5Zy7zv3dJNN93U21sGeAXaP/zDP8S6det6ZwY0oHdH4vtMiCIScksgMGcFBejQ4rUkJDItAjuw0UwznO6mONKNsb8R4Z1GjEPNDDMZIehU0HVLxLULN+piNO1is5viprqL20Z93DriYr2fEHhdviJHBqLaDZA5JcSWYwRBljItWcIYUoYMru1SoPgEegFepVCgEHgFfKOm9BEC5PsEyuXSssH7R3/0R/ja177WOxrQgN4bCbcZ1VpOAFh2BlvaVxjgySRODYANNqgpQyJl96kJPHdqFrvmI+wlaPc3c8zNMxK7Brs6Dqc2hDjw4OYpqnkXY+hgoxviukqGm4cc3Dhawkaq4k2Ma1Ra0/YRO2VEBKnAKXIITy+jCMgjpoc3EtwyEARgppKBz/FZm/uyE8xjBrzm8StGywLvALgDulwk/FCZIiVQbSuB5xIBUmsEb7dDUzq34PklzMUOXpto4pk3D+Lpwyexr51hIqUtnFB7tni/VcJoZQiVkSqiUZq7pRLsEnUj46TqhpdQExOHW0eHsWlkCPfWLHwk6CKgXVz2bAR8LzdwqOElLZSujD+OMGl+9A7ewK20r67RVKBB0AuUOLp8JemS4JWp/D//z/9z72hAA/rlyGCgF2xqS8vYysW1iHZslNnUiB5+fqCB//jjg3jrxCSONEJq4TKcchVlh0BtNVDvNjCc0yQe9tFdN4Sc19KhEaSVYfq3ZcoCH1ZkoUwtX2Hcm6vAzWtj7BzzcNc4QR2EGEabQJcjTe3qjyJxXVnr8Gh+G4Fi88cAVAnUjoWU8WVMsk3wOgL5FaRLgvepp54a+LgDumwk5k+oHH0qUAElSyLj8Vq+J88UJ+aBfQeP4+9ePYE/390mUAgo+rW25xkfOUmaxNsEH56F53Rhx1Xk4Xq4w0MorV+D6tpxBHWa1HJO6Sd7YQg/SdHhcZvW8Baa0/eMprh3JKdPbGNrxUONfjAQIFItlYCJmMJF+pbWQb9SjWa2rsh4luARGXP/CtJi8C4xAqR1B8Ad0HJJtc2XCrzL+LpFXU9Ov9JB5Hho8Ogo0fvT/VP42xfewk8PHUM0BrirXARV+sZpG3l7DllIbel6QG0E8dA4Qn+YAA7oswYo2yUC2qPmztDM25i0ZjBVbmJuVYQutW3Ht/FWK8L3j3TwJ+9E+C8HbHzzZAkvNgK+O0Mr7CCmNs8kKLwAllemXc19aV4D5kIH993d833fueGDImdkZOQ/9PYN/f7v/z527NjROxrQgC5My2ZWcr2sUQFAt6c8aHN7lOh94WATP9p7BM8enMTBdoysrDroFHncpQncgZPFKPH+wCvxWQeyblXrZJUshDZNaztGYlNbujY8+rauNCaFA51YaiZLdc3U3j46eRmTUYDjTQtH5mOcaoVo0RyI6AdbDgUB00fr3ZjGel6pMMRNTn9Xvu/CiWXQ+9VU9Md//Me9Pb7jXLN5YDIPaLkk4GZyBi9BarAhzOHSrs0JjCZdzsNzMV48OIUf7D6CF443cLzrIBEwLKLTIuxoa7uM2ycEXdujGesiDGO0O7zuUYsPMd4m950SgvF1WL12E0bHVsOhbR7GCWL6tTZjLBHHmVclyG00IyDsUiDELYz7Ea4fD7BlvIw7avSJqaHrZQej9JPLtJY91TlLI6eq2FKlGE15g0fZ2RcnAdeWtHof6KI+7549ewYdMAa0LDLgJcgKBrqQZsqRpJEJlXKNJqqLgxPz+MW+o3j8lQP48f5pTNsjwPB6msYV+G1qXJe61+0iEZCzDvFCh1ntTdKooEZNcnjUzEmcIwjqGF21lmEdyiMjSFya5DR3MzrX0r1uSm3N44hgzHgtc2xuLXq4KUEeIkpC3OO08Gv1CBvHhrBt7TDWD5UwRJUtAOcp78wpTPjuQvnq+4xRrQzgno6lrc904HAMeHv5YS738+YMFU+9e7ooePft29fbG9CAzlDfPD7LHNQpKV5dI7OqjTQhyNIsgk87lFAhuCPYGcFHTZQ4Q3jlVBc/eO0YfrjnCF47OosGNZpbqiDn8+o7IcjpDTKdjc+5EPTCYqtKL92cJykVjYfaqjEMb1iH6qpxvsNGSg0dUHvbDMS5IbNhxP2tyJj9/GtQC4flEFtTD/fZFTxcreJ+ypPrR3krXWDwejefYQiYzhEEVKouQZ/RX86o4Y2YKFeR+wF1PVDSI1mTyZUtTq1Ny2EBwMojnla6JIq83unl0gC8A3pXtNivXeLLEU9JHPO8amjJldxm6pHhFNpIBnNGDdhJbbxycAJP7j2Gnx+YwRtTMaZil5qShjHvtfmcantTSQDRAmj5bm375xif2lwNeKn1bdtFbXwMQxvXorqG4KWQSLv0kwlch9pS0LoUSVMaEDHdtpVimGb5BoJ2Z93BrUM2bh3xsYn2d8mlT04fW2BMpJcziidpZcVBJHpWhpgWgZSuqwo2fovasA1imQf6V/aZFPHHXNHPu6CL1jYPaEAXo8VA1p7xAMlFDpneonFq5QzUvLm6PNJjjRDQn/Xw9JEWvrPnKH649yj2nmphTlqsQvVmB8KMMU3lVy6bDNdTQJh9/ZxDPa26HAroC9cbFCCJi2l+zGtM0N93Wvj61DT+4sQs/u5YFz86mePt+QxdatwoT02NuUxwJVvk0LS3spAatwta/cwXApyCJSaqQ94XORndAD7HXLHVq0v5tAz/+WI0AO+ALkqLwXouyQ2lHqIiIhsZ3NFopJmck/lTAlE1yhN0W18+1sTXXzmEJ9+ewL7ZBDM0LOOgRttSba1EniqFqEmNObxMMtA9F7l8vm8Km6iWGV9IjTlnJ+hKZdolmrNV+sI1nOyUsGvWxrdOh/jPJ/gNJ7p4fgp4k0CfjnLEMtuTLv3veW5bzBBaBh6NZqdkunz2ScmQBcJc4S9zLGfIFAbgHdD7TAYQvbCYxJ+qIS6gQkaUbyvTVn2IGU53gFcOt/HEqwfx/VcP4K35BJ3yMFBj8H2CXzEwELUutTVSiYJ3T9K/S8z5d0HdioPZ1QG6ZQslfsaqroP1nTLGohHE6Qj2JSX8MAT+hNr3P+4FvnkgxWuTXTSonf2sDdfmRVvf4SOkzyxT2ia43Tin/tXgBw2UkPOgsVSScjKpGXjf4rxdHJZDA/AO6IJ0PkZafM74dvzpdLroNEOk9Gtzr4LIr2OCOH5x/zy++9zr+Pnrh9GyAjM4gF4l0rCDtD1HBm+iSv9SNbslK4ZNrf1uqJ8OpmhJOt8N+Xy+Rm0oAZLR7E2oHVXP5PoeqkEVo3Yd49kwGvEYftEaxfePAH+7dw7feWsOvzgV4WQYIPRH0HKKHmPGGKAJjbgNu0twq981wetRpwvOanfObQovjWmitu7n6bv9hgF4B3ReOpeRzmUu7Yt5XJ1XNTFBm/hDmLfKONAAfrx3Gk/uPojnD57GsQb9YZqSMrONqUifUSOCNKonj1u0ILtUvhptZKJeFhWDBvRfbA0RNNLAi8NyKAtjJI0W7DiCR9AGgY3A1yAGas8kRqkTo9ZOMEQ/16969ItLeH7OxzePuPivb9n4b29n+N6hDvbOpZik0GrrtQS+6Q/qeswni2Y1NTPN7JzXY2YBoS0nw9DivD13ezEagHdAl6RzGWnhmFrDSRL4rg8rKIPsj/1zwDP0bR/f9Q5eODSBozSd23Zg+jfLslbba8l1EbjcYzxRGKEbpYhpQmbLrLAy75fJbbZKSz99Z0BrC7jLBK/us6gNbUu6seggksW0JGQhhG2+KuRZVb+FKOW0DhjtrFPHO9kYnmvV8YMTNv7uQAd/f2AGPzs8g1dm2jicWpikZu06al4iiPl9ijenMCCGTV2BhicuztvlAHYxDcA7oAvSpZhJ2tKiJg38ABGxdHQWeP6tU3jipbfw3DsncbSVouPXkNH0zOgDIic0CFC1vwoBaW4REvQIydxdW4Plqa2WQ33QMiiNJpUGgL2t2RAsy8SuS+FScmsErk9g0Q1IM7QJsg6BGtsJMkcdPGjeZh1Y3VlBktrZg1UO0HDLOBT7eHEqxZNHQ3znYBvfOdzAj07P4eVGF0eJ9Qa/O1d6qHYt+siW1aQlQt1LV8GkX9/So3OPL0YD8A7ovNTn+z4faWPCwonelraulODEfI4X9h3BD5/fi+feOIIp8mZaqiH1S2RcalTHh0MtlNDEbrdDtFodRNx3y3VYlWFeLzP+Xs8+E3Uv/ouRGL23209vAdwCyAWML00u1aDf5HfISqBt3/BttEcoTFZVgbEqrQqmixaGNKflUADR3HfjWZSSeZTRhuPmaNJt2J+P4IXuOL5/LMLX9xzEE/tP4dWJBo63YzTULs3kuI4sFXUi6VJo8MX8AOWp3AB9i0n7MtM96KQxoKUkjpBDRlQmHg1G8pI6OyQ0cateAF/Xu+pwSCBS+7w5FeF7rx7H378+gVdPtdBOXfhDdXqGXSTtGUQxTUVq4IIlz2gWw6RGPWoYAM/ptHGMRZrPgqR7F0zkonLHsLeQEBNQTtFJY3jTOtNJI1UXSPqwZQkCartwGc0xRXx6I1+hziJFkgwV1/TuoktkP3UFFTfqXAE9ETU3daIskTo190Y3wi0jDu5c7eOONSXsGAJGCFxLkkLThkQlRA4tEI8mO90JdRZRxbWiU1aobVhZpI4koltuucVsRQPNO6ClpBpQmo3qJaX6USuN6dtGKHsEBjmq2YkQUpvO5T5eO97AT3YfxAtvHsaR6QYiNYPQ/43CEO0OzUw+72tWOMPePRY3alF9gftne9xaXF0WiZVNNMWhAZ+hRdH0r12KTAoUAYOesbkrAJnWHyHIxKcvMW9dFEQ6W1TeFSEnaF2sMuLDx+nUxkutLh6fmMPfHp7C9w818NJJ4Nh0DWFIzU7A2hQ4OUEa53GvA4gSwH++gvYK3F6T0rk0AO+AlpCUbtdwrxiTZl4Swo/Ve0g1whZiz8cpYvuV0w388PWTeHrPYew7OklQh/A0NE9YjdrU1CEyjQhSx4XLSoQbmXkxPwuA/b0e2had+2BJE9upl3PJtQhMF43Ywf7ZFM8e6+Dxgx1852iO754u4bmGixMxhaHj0acmTIlGPWurStoMxiCQmedFe/hSGoB3QEuIgp5mnIboiYFiKqQUriahopkqjukQnHsmG/jB3sP4wb4JvHi8ieOqnFIvqV6nBGOEEugpwaveVu8v9UDaQ7M2RlNdGewishN0nNBMEODyz0npP3crmGiWsXvGxxNTNr4+meOvTxPME0280kgxFTGvYo/5zLwys+ClJv/bNL0jVdOfhwbg/RBTob2WBjOe1nYR0lQ28z2JHJl2rpkH7o3JDE/uPYjHXzuIXScjTGIIaWUMOTVymoY0uTsolX34lSoZ2EFXbZzvE5n0CqRKe3HqilNCs1eWS0itKXmnKQFcbwhWMI62P4LDiYdd8zH+5ug8/j+vn8Kf753CMwdC7J/IMdciJNVDxPeQ093INYTpAvNmDcA7oLOAa4KpLKK0J3e0opimG3eCOuYtH0+9ehL/9ftP4+nXD+JYaCO2AuS1Ubj1EVgaEieNQcDLBHT4I9hqkMJlJRPd2XH2TzH5horvuDJUy3yMJxV4BGGDOXDCTXAsiDFdSZAGOYaJzY1MnJ+P4FC8ET894eDP9kzif3vtCP7kwGk8OdfBEQpQ5iLqmYeyTKHz0AC8AzJ0FngJvjxp0ep1YFWG0KrUcZhK+KcH5/D9V97B8/sncWguQ8eiL0sHV7XOCU1r0+nAdgh7ap4oQhgX7ZhFjfLlJQFTUQui+ivInDXnryRpMoA28yPhdzuOi4DbgD6sF3XhRi2CtouSF2M0qGC0NIwsWIWDzgieTgL89XyIPz05g+8encWhaVo9DeYdfebz0QC8H1IyoOpt+/si7dvUnn6izvQW+cbH4Q7wkwOz+Maut/D8sTlMoULgVhAJrWqrjFv01zrQjBW5zGua3GmiXkryl99dt8fl0KLUFge9YDb6ucLUpq86gxCxnaLCjx/PHKxOLIxEGXzmSZrG6KjzB3VriaaJz/zJSlVMBSN4I63gZ7MpnjrexGuTEWbUj/ICXscAvB9iWgxaUR/Iql7SxG2qODnVTvHc/tP4u11v4Im9h3GoS81aGUfm1ejcqX9yk1t6wgm5jNpGPYlAbaORRcS+Mb8F4MtOS1DaPzYQLnYXth8sZVaGzElocFDb8ttpKUMDDdXso1FFMfOV2cowhyg7DSudR5XHtSyAFdcx0yrjzWng+bkEP28Dx1X/dx4agPdDRn12liFrjNkeCIzx2dtX10JVUKkH1K597+B7P3seP37tLUyEZDqngvmu5lK26deSFZM2Ampfx9GzDIqD5rZdKplROfJ684yMrHh74ZehCz1vUm7S3+s0YX508oOnEX7/JoK0Sl+/k4WYsCKc8lLMlFxEfgkerZZqGCDwKdSGZynzJuFNT2JkMsaaOQ+1ThWzHQ/PTjfx1yen8NJ8u9d35eyvH4D3Q0TqADCfaVI3Mk2Uw2pQW7Y6NHWtYrYHi5qUXB/Sl30hHcb/+sJ+/PnP38DeI00Cuo4hmnVBN4ffSVDLbVRcms52DTGZUUPdNFrV9HfWuNw4hCan09hWgbnoUVGEJQAU0gzadJnXdR/JCJNF1wyZKHisIHSaUe/967xoukfJ4JefWHRuuGQwz14+ihlhh+lIjKalxs0dBJkNj8LQZv5kzOfUyeDEZVRa6+C6qxAPlxAOaerbDjw/4bkSJuIKnp+28ZOTCfZNM3fNt52hAXg/JCQmFSN5BGYnJsOr5KkJNN9x3ibD0BfzLBdd28GbM21854VjeHrPabx+IsRk16f/VkXmBqYZJJG/pvmcXPUGUh8s9StazFh9YGiv3zNpGXQWiopnLgwsXbnw1StJStUZkVIIqzPyxvxQxnBLQFtaHYL5nlGAavnT3Kbw4wMKqnXopBaOUcgeYJk0iggXaADeDwEJSCLpohJ3NaNxy+M2ILDUI4qqwo89hJGDfZNzeHLfYfzwpePYczTCZFhG1x1C5FUJbM2QIX8uRtfpUuO+u8HzAzqbpPPVe0qhKKKinAzY+SdwamjjRCvEG7NtnDgnuwfgvYapbxb2SRamnQKuBhtQN3T4q0EHmi9Z5u2bp1t4/LVD+LtXDuD1Yy2cot/V8UaQBsNIaMaZe3uRqKY05vMDeu+kklGzmoL54wllsajQvgWAp6IU+xox9reLa30agPcapz6Ai0DkavJzmr1aDjPvRmZK1kZg49UG8DcvH8LXnzuMFw81qWmpp6tlOAw591PzLH1Zw1W8RrDr1Nnxnz/wp5eaAS0m5Y3RuvwzQwJ7yJXHXgTuM781t/Xh1MXbzeJ6nwbgvUbpXAApxGkHnegUnak2KrmDIauG+cTHU8dC/L9+9hr+4rWjeKuh9T7WwvZbxGgDWTKNNJwCwjk+p/mZXTj0m928BEfd+Ab0nkkiTYCVfywy5dTbL7RuETKvgnmnjHdmexd7NADvh4TEGCptRwvxyDjLy5hq2nj27Wn86c924/tvHsex2KcvSxMZmghdHSy61LZaz7ZDDgvpM6cIqHUJX56zCWzF09OsFwn8HdD5SNnHjQk9rSvSrqng6m8dD2Hu49hsH+YFDcB7DZMBbG+rYNab9epoU9sem8/w80OzeGL3Efxk91HMztMGDqh1HWpozfpvmn609IhWHrDgWsVWA+I1TM30purFP6D3Rga0zOEF4DJ/FzCs8jI3aGsjoXszq5XSFtEAvNconQvcIniIshr2N2z84MAEvvn6Yfz8wBQabQclq4qqcWLn+VSHAB3i/XXyUx2OU6X0D2jeWejSZ47zCLnDewdW8y9HRrX2dop/Qwsi0ZQhQ0qfOM4Qmln8ztAAvNcgnV8jWkgzB40W8NKxOfzta2/jiXeO4VTsYv3qbRiiGRxNnqDBPI/ykI9Ot4IoqiJNGWhip7lL6U+zTXMr2wm1NGMM+uz2ftD5vuEMXfzq1UHSs0WnFH4Pf3pQVQGasPCNOlbHmkEnjauPzg/G4rxMWPXoUUWkJvxW402cJEgi+qg2zV2ayjF905Rm8AG6r//La9P4y5cPY/exJma6FuYp1Q935nHaZjyVEWrUUfqyLrdzDA1kdhOZ1SUjMWbNy+JoGlOqXFlwmqhJnHepQMqZzoXQY86FsEA9C8Ewqg6L6/1zZmtO9c+bRxaoONS9uTHrNWVP0bp9iaBeYGZFvw82WAw2BaoJNIt1bEIud8UlOBU8ClQ5LxnmTG+yM8RYBnS1k7ohpkSwKUwyrcNCFmZanQ7mwgSR7+KtiRZ++OI+/Pi1fXjt0DFMNrtmoLwdaNA3GVjrDTk2NS1BHBGolgYZKBA0ZByBwpABIwMPDXjeN7pQ5IvPn+ee3ikDcEO99F4sGI22coN+Ree2qg/Ae5WTmFT9iT21wYZdM1GclVHzMkSU4E1q3t0nI/xw9yE8uXs/Dp6YxFSrbbR1TrBqXVzCnzyiIG1GwGoOpQGteBqA9yqgfkf9c6kwI4uexWX1iY26VJgRtaeAS/PZL+FYB/juS2/hW68cMAtbt2iWpW4ZWqEvt9XcQ/u3q+agCDbjcGkR27ImB7TiaQDeq4T6QD0vZSksgs+rBIhjdXkkAit1UOHib376Kv5+z0G8OhnjtFWBXRmCWxuGVa5SKrD46RsjVDuuFqqm5exqqN/5hcWAVhYNwHsVUx/QZvytp+HzDvLqKLpBFa9PRPjzJ1/Cd57dg0PNDN3KCFKvilYrRNKNi8XBpGK1Rm5JwS+mdU2otTVr2oBWPA3Ae5VSXwtrq/bX3A0wn3mYyCw8e6iJr//sdfxg10FM5VU04ZuhewasqlnVswI9n7dMDbIDrR8kAzzV1DZnNycOaIXSALxXMfU1ryqf5qgspxILP3trGt949k384NUjONDyEAYj1Mr0cWkWq43WCahlbdcAV80PZimPLKPvmxXAlcltL3PBrwFdURqA9yqlPnBFcZrhNE3h10/O4Vs/ewXfe+ltvDlPd7a+Ae2M5jQ1rpVF9Iu7CFzXdHV0+ajD5221qZo1JxODb9gEt8cwoBVPA/BeTSR1aagArUj4jXMLU50If/ndv8fP9+7HZELAltcgEXAz6tdmw6z6XqNCbTfmkbS1oDW1MJ/zHGphmdNmln69gECX9h3Qiqf3uEogTSzTp0c9QWRiaSoUhoS/ai4098gEA2btYllEsYPOZ9IAsaaTTs2Ul7Zmg6cmyHKtZ1N0FxOd2zzS1zIXaja5lqivVdULER0brSBHVFJjPfMMbQStNhyvjtitYN9chB++NYE/f2kCE9OzmOuE6NL8TZnDzCzFxlBMvyq/NjVxF/nYz8sFLc7rZ/L37N48vxQt4jC+qbdHMruLjlX+GifMtFh6v9JkQtFJxJj42lOPffXDjslbNPGHxsYxsmEDyqtXIaEgiqMYgcY+ke800P3SdFaqVh7xu/vpi//He3t771nzaryJz4cJXGa2LK8sVaZa0GRmZnkGxWxlCAheNw+Z/yF9Km6ZCtvzYXklZG6JmeuxDPjcJXJvMbNdK7QAmvOQzpvV4ijTMrXhMqcIPXjMK8fmSTO+M8SP3ziMH7z2Nt4+1cBsZJN5AwpEjbkVAGQHF9I0o5ZNzLvOA1qSyV+xCIFSBN1wmcJiOvf84uP+ufPR+a7xM8yX9K4tcAePLxXdtUDvGbxISvShCOCUjKK+mTwn6c5dRHaOrlWsLF5Ou6gkIYIkgptqBTRlqovE8hEzRGZF9LNXkbvWQHopuhCANcNgNwgJvw48msXVDt3RuIwENbwx1cYP3ziCx3fvx65DE0iShMKRYGVUajqyqXWkeSwVikiAvNzLjlwpWvQZ53KKLqm34zXypRel9wZe5UxPqIuENaNwdSpPEFHLhjSPo7yYAtSiatYMvp4lM9tGnGSIafJoXmBFpTVt+pr1wwbcPp0PwKmVoiv3hALQjzI4FJZJ4uCduRTffvUdfOPFN/HswTnMdGgeaprVXud9ZaFN0NqqqDIdLhhM9NcYS+tzzvNJ5tSHgI3eo+ZlBulJhX4mqT9s0oWt9ViyFIHnoexXeE+5CG6ZpjI9Ea3+7dMHpkntkSm9tEP/hH7whxC0i7/53O/XcZ7GBOs8qsxLr1JF4gJvEMvfeP0A/tsLe/HTt0+jEdVQqm1YAG4hDs+QjGETt4n/2shj8yX8zP4X9b/KYJkHCqb+rTh9zdJ7Aq8yJ6W7q1lQUo3vjBo80NR2cdEMYQXMXJrF1MWHE5p4LRd7ZlK8PQdM8HbVw7gCt5fDy1pAd5qMd61n9flJwDofcBW0Ino5cqlBK2jylp+divF/vLgbf/rqG3izwxOV1Sh5Y/Bj9Y4qilJD56SF+2FhYWZTY/WeinvFkXLLhPNoXZEBcbF7TdN7qm3WAzSIySgJbPqzWkxZNcpUrWYV8NOtFBONGNPdDMd4Y7sbIooims0WRqo+1tU9rKNSXlcFxgMCmKWQWUN8vmDac5lZtLhi5cNA0qRqeJX2naaf++LJNp548wieeOsA3pqZp/Nbp+Abpi/sI1d/Zr+YF9TMQthjXVOByOxanKcX8q8/KFry/rOOmU7qE2P6n1vbbM7p3qLWWQt+q7bZtj1Ux8cxvLGobQ7Jh1qd0Ldo4VF5FM9cis61V1YY8Xv76Vtc2/yewatlDLX0virjJdBzZuK8/LHpEK8db+KNkw2caESYJs90IzIXM1oNSnXPwqoSsG3Ywy3rh3HDhmFsGq6gSi3RZ7I+o2nbL+z+tq9hrgU6l5EXA0zgTVILrdDGMwcm8f23j+OZIxN4a65tOlO4QR1+FiBp8b44gltiAes5hoU/xaf/RU1A577zg6Yl7z/rePngtTV0UTzVA++QmorWrkKX4I2iYvUH1bHYev6SpNxawcRv6KfvlwcvI4s6Am0Ox7OROjbmaEO/NRvipwem8YtDc9g7GeF0qBkNNAsDAcfMVJ20S6YMaGKvpxt864YR3HPdJty5dRgPVGhy90az9AG8GLx9ulbAq+/qB1H/e0UCrsJsO8Ou4yH+6vnX8NThKRyjCZ27NQR06LwkRsr8IpSlbs1sC4rKtIhyq+KW1jVktvwx//2TV4bOLU+T2AVaHngFSC1Dmic9zTtG8FLzlgheaV6B1yW/+dc4eN8bEhQTTWKbJrKVOWiHFg5MzOPHe/fj8d0H8NSxORxMymjXNyLUYlRuFVFpFJ3aOjTqmzAZbMC+VhVPHyJjvnAMf/3sMURJUUAmeiX2POFaIX2LwNmvIb5QODEzi68/8xx+8uZBHKErkrlDqNK9KDVyuLNd2KpvqDBf6H5oypd+HkkGGGHAP0M6LUvpWmkq6pGptFLoHYv0haaj2IeAlmjen1Lzih8qXf7Ir/BY6F5ulucnP9FUc1Gmb4t0Dqk7jCPknxdOAU+8cYpa9yiOdhJEql326MM6Ae3rWXEr3ySf2Ka0kIagxKTkpAUNn1q75tu4fSzFozvG8alNVdxa09w+CUvBQ1IugdZ44WPHIYYSxtnvrmXOMqgENYULdbsWZ5JMCt6jXPplSJVFSZjAC/wifX0mMjlsfoq8yGwk3CT8HttpM90dxMyTTIPk3VU41WGevjqBH7z4Jn4y08F8J0THYK9oT7ekcRi35dERcW0yK/NUgwoUvfk9m4pzxe+V0LwUK8V3G+qlgIf9lPQrnrTYlmb3kDtmhI34T0GMlyfUpimtMx4y8+JWgrybIqiPYO2q9XA2r0FjdRWr6LYlvoXuqDqr+Ci1rv6unv31jETp/3S/2YqWcLg6O5rPNb2kuJc6CHONQvGYcermqIqCFhLXweFGBy8fbuEXb09i17FZHO9YiCx1hGcslPJWFPUkI40hvtxmAVgMGnwmRzkmmFsUk1Nhit2TMX60fxZPvNPA85MUFnmNifFgMw50qWXI6K7jGrgaUskbgaDU8jPI2P3PuVI119J2SuMCiSnFtAuMSzKCjJqXWeSSydRpxWf+Vmid2FYVb59u4omXDuMHew7g1ckmpmjhRGol57eqzoAFYuZ/y9zCiLRSmpC99nKF85HJqt7flaMiFX3qH50VZBnQAkOXZU4hqJ4Dnl9BqVQ2E+mpF58mG0jpD+Q8B99n3lD0hW20QgpASrSxyihGAiqOxEYYXhk+eD/ofOW7BLxDcZPMxMyTciUOuwSppgz1CdsyT2qestBK8GbLxrNH5vD0G0fw3NtHcGyuRYYiyJmhRi1kMYUlwcs4FfRzhnn6rNQ/Y7GsLOw+FeE7+zv4m/0Rfjqd43QsU7qDUtpmiMxImNAJmaYMtNiNr53YPlKrTLvAp7Z24SYKSz7rgyGZqsogfZTJbf4s5Hjv22XT2mKqmBozYla5NBqG+TGjOD1h4xe7juLJl97A80dO4YSG6RlzWI+p1xTvdT0T1AFDFVKqoCpmSVy5ZMpZ360s6GVDn0wW8ceY/AQnIioHbXN+b85vzenNM+RaWiXjfhYwS2V9kc/IA7lDkLsp853Kgv6u51XIJ1VYIa9Hepny5uoO+j0fLeFymWTMPWgd1i6vKs+kjX2qPJsA06IXk8zYnx5v48kDU3jm0CT20t+dinOk6rNMsPMpA15j+qrMxNQLJVfsFbvmIhnQQie2cLTr49lJC9860MRf7T2Nnx2bxrTsS5qhjuPB0gwPdkimjaV/jBY2bc1Mp2kS4bHergkzrxwxvYYZZfJxv/+dhpRIgVtVeG1EUYc8WqLJHODQlIWnd53AU68cw56TXRym6TzHPDW+rHlU4FWXRwKYwTIaXnnHrDY3rGDSZ/d4oFf6hpQ9yq8+eDWRnqvglRjKBKyDLt2wTovlTd/JoTvmuzXmHb89VBNljNV1F1vW1bFmlSaGzzHf6KLdiE1vNN8qmby72oP5PXOwQEu53FZ7a0DfkXa2PMg8Nm6vHqR1iwNNF0+f6OI79HGfOd7COx0XLfm35TpyLzCagE4JI87gUTOeKaxia37P/BhS9C05tl6VWjTAwZk2/m7vIfy3XUfw5PGIfnWFmrbEOD2UCQp6wdSzaqZaHAtJB/oiFuKVIQFNTTwRXTUJQaXj7O+Ua6qzLoVbmQwa0TV4qwF8b89x/Jef7saLp2gC+uOwSuN8gCDtCTjD/L1gjhnHmWPFvnJJqV1Ia4+KEipAW+wq76Q9bQRlljUtuFyTvMuEpgVmSaOqx55cpXYb/twkbh2t4Fdu34JH79qOnRuHyXYtTMxOo9ntmE5AgazAa4AK13NpMS+psHrt1X2yTggNzXM0B7/doWsxSlDUsK8JfP/gLL71+jvYOx2jQ7s6psmaO6qgYqZSK6qLpPwWhz4ojWxeF8supoLxFv0YCZzKDvY0YiahxCXzM9T57K1jFXx8yxg+tnkUt68KsMaeM74O1Q+flIgo5l2y+IVSapqHqRAZV6LgCvDqgyzTTiNJUnxjqsosblUhQ7Y0nVtSt4QXT4T43msaYHAIe0+2ELtaXiSg0FSTCf07ugkiw/yKq4iuYHrzrz+zu2KpD9y+hlX+KMFqry00Lm/SOSN4aU1k3DH9G/W9DMozm3kWt2gKtzGehbhnuIzPPXIHrrtjG7q0yr59YgJ/evAUNjU2oVytox3IMqPikQ99tZPyqWdeJf+Xi1RYtXmma5RGjhLR4PuqKEix51QDT7w1icffnsILEznmuhYisaGAq4otmduqXCKTms7wfDaRydcrIBN6bGb+eKx3mCCir2inLWb2PAIrpPntYT6v4Rc0o7/79jwFxmk8tX8aJ5oOWqFHwSJjXhU+8oW7PO7yffSHaSl0jY774Kn4On6/4UamQbWmFCxGg0iyuAQksyYkQ4ZhCc+/OYfvvvgmnth3AK/NtBD6JQpOz4DcYT4a8SPmZVDZaRUACQEF4+vyUv/6SqZ+eeuvT2dS3NvTN5BvKLOoaSmwNA+1PAMF8kXSOIVa3sTOVSU8dttW/O7H7sQXuL1rlYeNzKiy8pka2qfWdksOLZwO+YG+xzVCyqVzS3kJeA3Rz3TlXlLbtt1RvDKf4ltvHSWADuKlk/M0YevkLoFW7MUoZCJSk5gMVwGJ2RTNueDth96fDPP+nkaea/xpRpNbzJnLPHKp1RHgzUaKHx2awd+8fgLPHAuxeyrF8TYBIAnNL3JsanrFwVfn1PipKfErQVrlXN4405LxWzRML6YFw3wQdkUUb5ho5fjZiRx/8/zb+MGuA3jzZNMMkaStx+9h3pvKF/p5EkrMS7G8ggBsQKugc/re8xbrCiNTLiax5jv6VGjkM1tZTArmLllS/EqfArkcNzGSNXALLa9Hb92ELzx4Mz52z3VYu9pHnRZaiXnsqQo+D5j7dPlUT8LnLFW8mvde7aHIr3NpCXhL+RyqlHAegdEKfeybLeHbB5v42/2TeObUDOajhL4HfRLVejJ7NTu/KqfMqCJjIhN4Ap95Yd9U0rG2Yrwz+/1jPsDM7yCjeRTZFUQZQau1Wyy+i+ZPQlPqrW6OH9LX/svXJ/DEwTm8MtPFqYhgEcjVhEXt79MbVp14MW/HB09GDDEfJJSKWuCiE4ZmsBBPiqfmm23sOXYKf/LaQXxn7zHsO9VCN3ZpbVAYUnNokjiXkjP2uujwz2SPmkaUnyYwol7QuSLowsol5Uu/vE2CF1HfpDaBf5RbprlNvOVTA5fjDtbz5L2bVuEzt27Dr919HT5y0yrUxoX2CN1QKxrK3aryLUM0/izqEc3oIhGuN+v9V3fQr4w5Y9AtoiXgDaKjBEKHJqyFgycSfOPZg/irV0/gtYgm8tA4b6BZNzfB6zFDysymbqS547sa/cLoyKxF0NsILFNgirm31eacQKQyriYv8XlqepTWwPaqqNNcKoen6D/T2a7V0axvwLf3HsX33z5JX3EOh+e7aGqxK9mPalag1C0mVtP7PngS8wmoRoN4FCGeS0ZkHqjNnNRotHH0+HE8//ob+NNfvIrjFFRufR1FTgVeI8IQ5V+ZwrDTmUWUNujby/8vhJ0hqad+6NFZ11cqmTLmz0XTSQDysk8jrkJh7NAFy5tNwjHDbZs34Csffwhf+MhduHv9EKqUzbPSqixsqxzACtT7oEKNy/wkC5WoBErUxOKFa5mckZGR/9DbN/QHf/g/YDoZwY9PZ/j62zP4zsFpnLbUYWKIJiBzJiFQKyP0y6hVhFVqWwUZi0YjEEIGtGIw9UDgPabddzHj8f/sIF9HN+qAWly+Cn1YmaDqyEFo81ganiU7ugWnmzGOnmzg9ESEiAVWq9UQUKiAmlrjXxMKgsxVtZBeT0jxUeNIEueGmC6Tfv4JapcmfZtRgUYuGVNVSdUVHffiVSWVk9AfJ2CZEpq9FHB81KJJPEOv4unDCf509yl8840ptNLAmMQ0qvmNamajkejbzFPlHeOgMDI9OZRf5ksuEHrpuFK0nNfbNG1dlmmJQIvl1MYsb31jUKLGlIvWImBDOF4J8/ZqhJNTcOMG7t5Yw5fu3Y6v3L8TH9k+hrUV2wDXZn6pqtKn5ZU5JfID8NJ0G6+05zGcqbUkQ0jrJSHvqPvu8kj5uUKpX9yk7Mn/VOyQlnBuN6vhdebG84cnsOv0LI7RBGkIN6Z2hLczQ4zpK8DxlCYD41EvfkWnzNJ9vGh0vbYXD4VfJ0OJT0oLywQ30JXXI+OH8Qkh8qs7lLh2CbNZCbunI3znjeP421dP4QWa1BornDs+LQHHWAYOn1GcJlkKOlBgwl1GZ6siablkMq9n3jEOJcfIkz5wiw3fz/Nqj6ZFYBN8kVWif57jyTem8fgrb+H5N0/j5Ay/kWa+opTQS8nAaqs2zUhiOOaFTH9tVzwVBX/RYLvUjuU62g0K5ZCFRE3JQiKIOyzSDlnKoaCjy9TtwO9MYXzExSM3b8Ln7r0ej96xDXdvG8P6mkOHiNq4V5llcoY8qXyXkWe63FoU7hSHheuiVy8u9IuFq4GWplVfdxYdDS28dOg0dh04juMzLTIVmSyOEBM4kpI2bZskaiu3ek9cHir8ujPhDOIKZjaBhWU36JPrMqX2MSbhmYlp/PXrb+O7+w7j5RMtTIX0x+1RSmWa8eo4wsKmZ4TI5TcwELEsfBYtfSM7WiY4xBzGDWBaBF6eUoeCfnu2NEFxMkOXfpjGmnqpT/eVaZzP8KP9J/HXu3bj6df349Rk0/QPV6RFFpofQ8WefgtheK1QalOIqZJT3X2Yfx4tEvWac+MWfOaVRUutlai1IcQN5Xk8duMYvvzQDXjsru24deMwxjTfXh4yr9W9luXHjJMAVZ5rq90PIy0B7z7i8oXj83jtxCxOtSnFKDULNaMhe9SDqpSSBrycRE5VLXE/GPVlag+lfc4EDfNaRfNSk4fPR13MEMyT9HNfmU/w3TdP4vG9x/HS0TZOaZVpmmUZzbMwChGTKWSgqnHL9MsyTTj8dL1nGSQgqS5pQV5Jo5OJlB8aFmkq6iTtyZQRyGTqYEChd2o+x8/fmsBfPb8PP3z7GA7Nd0w/cd8u9+LqR9hjPx6aip3i6JqhXG2ttESssdVwSmXE6ofcbiKg0KuofwDLQzOwbBkp4TM31PHlu9bj07etx+0bAoyXCFgCHSxDtfdqTSZH3XD7eSbSbj8sPn+N0xLwvjqZ4236EKfpu3VpnqrXlPqROo6q8WWGsiDErJeVxZjhxoEuAGUA3NvnyxeCugVWR0tox20kLc0c4QPDG4H6FtA9xxNvnsLXdx/GDw52cIoYnSHYs6CKgAWu1lOX4NIatqrkKYY09cBynnAWUbyr8snwhfxuBX2/KqJMXtB/pnBTZ5ESI6Wni4Mt4EdvH8XXn92Dp/YcQVN9bWtr4Q2vYpoIbr1HcTNSoz0YdE611Ob9/D+LQa9iMh1onBROquVHMzhBHaWh1XBLVcxOnIbdmsbdm8fwm4/cit96+CZ8/MZ12FRmXqpSiqZ1xjIz9ShalZ/ATU29QC/TeqS8Mn86tej8tUxLKqySh/+B6Z44R42W+9QQzCjT3kYmVZc/jUFVpwzTDns5M8mYyqRenOaX+zJT+6RV2rsWtRelNEueqa/wLIVLyrSQ2Wnx0++NcHB+FhOTk0gp5avVEupq1urShJ5rMV7e6wdIAgeqfzPLfZxD/aaLPmlPyePt5j1EbxFoNsdJSs1OV0Kjm5Qmbl85Oodv7XoT3927H6/SlA/zKsE/wmzzmcai54+eVczFa/hT/C+i4qgA+Mqls9N8fgqsBNW8hW6zZQDrlYcRJTk6c7MYZ/H9yp3b8at3b8MnbliNG1ZXUGfZmNFrsvjkqjBfc69E0NpmaKRyzmU+aoJ/VQ5OUY6/MhdhV6OLobROa0gsQauR99nLtK5WMimPix57ZJsn/6PZigw/Lqa3Tk5iXopFGlcApdmpDhCqxi/AS8yoAmIRc18WUny9OM3vQvxn2FeThrep4Ux7gJpiWLhel+mL6HuycLt+BSfoT74428X3Dk3iu2+cwE/emcMbE0AzKVNwj8Pya7SYLXrBKQ3cdEHTGm23iBYfa098ZEjpEndwqwo11WgmZK6E2n2OZvoL+xp44tVDePyNQ3j+xAxOK7+8KkqW5rhmJDL/1FVjIf7ed/JQ7ywG1RenloWMq4Goce2oiaqr6Wu76M5OImvOYONwgC8+dBt+8+Fb8MnrRrCjbqESaPJCMmlvZJEZXkqhpzHLAq2wKNldZE0vg86TT/0svJZpCXjnO5HpTFBgh8ympUnok0hDacC3MWk1Y/9lJmNa9YIpvV4ogCWQSaLwnPGFmTiarlbepdXaYto6vMLr0n6OJnGv4lBSw9MHZvCd147g79+axF66AnMVugK+R73HeJIO3EzOMaProeVcAC8QT0toGY5YxCiatyvT4AKCWU1Be4/P4a9+8Tae2ncKb05GxWALpimmX6yRUEWPHwbTqcXEYOLpx2neb763d/4aIS0vmtk+fApcuzuHWjyJW0YzfOmeLfjqR27A/VuHsa3uoE5VKkMozSgYCVw1EcpR6w+LFLPKgSp0KTONTCo+LbJvYedDQ0vAW6r05qBQTSoBooHz6owhLNnSxBo/yyw0bZ2Xi5TvNIkXBxZhLyR8l2lQMYwNlHmaDyQh4ryNzKVP5Au8HV6nbFZnDWeIH7IBh+Zd/JgA/ua+Y/jOoRm8SD/0OHGjVfXK1OBVxnEucLVdAh4dShOYfW6ZN4m0qOMZOTLTzrD34HH8/cuv46/p3+4+HdMs1BC1OvOL5rmmTncpKNwYZfrdftz7ll6URU72j/XTD9cGpW4ZYXk1lYKNYauLj2wM8A8f2IR//rEdeHCji+G8A3GV6jTURV4umdYgEo+ZqYJU4agKU56h12sAbPKsyLiClpy49mkJeFePj8Lz1Lhd1CyrNtCh5JPN7ariiiZiJnPmshIZVfm+EHrMS1uVUOI+gWJqeHOUIh8BAWqpssiOaba2yBwdjWI0fUHskGCfjRC1CeLqOsyXxvDiTAt/9uKr+K/P7MLuU1OI9W16kZmtgVH3wLoEtD2SmeYHShiJ94RRbKaz7YuYwycn8MOfPotvPfUzTNdWoWnXkccBgqSoZEOVmqecUkOH8KIOyqqAMd915n1mbxGgryVKM1o8aY3lVMUjd9+Mf/bZ+/C1h7bi9hH6qDk1sfLWCdCObZO3KhpVkGpCQpe5TPsGjkVFouailJYWLa4BMY/OrbD64pf+HSbmZnGcZmVK3zIq1RBELoaYsYQtEqeL2GkUXGuox2093j6zQ5NGf7ysMxcP+ltMvSvGLFJQ+6oEBs12mqBagEsdO4xPrrZDMoeVqT24eIala1YiTCl8ZGVrbqQurYipuQamGdrErF8Zw9DIMJmDH8Ko9R6H7+h1buzJD3UUUROQrBBzgoGS36GecCuY4KOP7z6Nv3p+P350qIEjadUINovaVX24tECYeYb30Wqmv0cz0PLM7B+Z7VLYFP27TB4pmOQXucFdPlqIrg+clAY1y/D9mmZHhpBDU9Zlfru0NjKVhQSNrA8KQt/leVojFsGlWmU7kLnLawIiraS1boiHR2fxpdvW4At3bcWdm8YwWqJwVdyaD83S3JfMC5aTT54TaJUXvEDBKWuPhaiyNkGVpRK9UigaNeRjkljeNdvBy3MZasx3Kw9Mu776/TligKuclBXLqrB6YEcFQwnB2VLGVMipFbTUVdGjmWpRo6mZRF33CvbihluT0wqLoxPjLZ/1WBRnhSK+cwLfU3THVLwsWPrfltqC5YcTNKaDh25T+yt9SxmsAqRFqR5ZZZzsuHjlZBdPvjOPv3tzBj86lqBJIMZkICdhfFpiXk4XpXxC/yslM9mMxVWkNvMgavIdvEZmnSVf/nzPKfz982/hlYOzONUt85lRagaZ7gQu4zDfTybXHFNmuU4KGA2kSB36fgIIT+kWheIL+39nzl+RwB9jhSgvmc6eWGT6VaFGgahrOkOQ2cqnOKJX4VBQVmkJlZBoAH1rHiWCeVslp5lcw6/euRmP3b4Ft24ax6qqD4/loqxmRvGHb+BGxpTLH8NOIu1IUPSD+MsI7D6fiRd7u7LSxAPGzep/Sv/itUn9XFignVuBG9b42EQ/xQl90wspoxSbceYx62iWQ0qydJh3KiOVy8psFiIz1zDkQs73s/DKkE20mPkkmQRHNb02ZbI7ipNRBS9PJPjuW1P4+u7jeHamgaONBJF6W6nJiQzaoZBqkglULyzWVYeOXN0v7BRzvH5wLsazb0/i8ef24eW3TtNS0Rhb+uIaGbTomwvw9g5I5x6vWFIaqVUF2WLBsoJNUgruJCEwEwko3kQLx6eg1O0J+SLJ9f0U+MrHsI3tpRi/sr2GX7tnGx6662Zct3Ecw3RvJPo1IaHiWHBVClYa0LugJeAdc2fw2Xt34NEdW7CZmihoNmFXaHbaTURmsi8NXdN0JJLHAmwftDylYP56ZMqlVzgfKFFDqIa3xyCamM62ZEWMoOMM42gU4MXpFN/fP43//JM9eOYA3YSWecx8lwb005s2JrNh1JA+bsKjoIqjrQQ/2n0Qf/Hjl/CTN07gaDPHHIGfqHOyXqdo+gxJKgB79rGuLycUsV0B0mtlgNDiMO6KqUxQBxJqOlkWaq7jviY0Vxu3F5An1KlG8yTxf6Rawc7xKh7eVMdv3LUZX7p7M7aPlTBCuU/sUqD2KkMVt9GkPRqA913REvAG1Dn3bh7Gb9y7Dp+9YRTlxjFkzTmgruGANRZShoBmjxlzSb/IaNoefxZBJV9AuNDCH3yJyB9OmD5jopK5MgJPfdblsxnhExDIXgnToYVvPHcaX991Et89MIeX+JmTBKEWr64wazSTV551aNlRMzurcbLh4yevncDf/nQPHn95P460+Z6aaralS+h4Zc0iASKTGb1d89M7uBpIRUZtu3gid1OmpigloTTogu4LTeXUqSLOHFQCF1W0MRZN4PqghX/5mY/gD3/n8/jYTVvNsD7pZF/PxSFdiIgykqLf9+jCskzEQh88m1z1tKTC6l//3r9mJluoBx5qVZs+TISTzS7aqWSmBuE7xTQ1phAF0b6moPnEwjYeK0uZ+tho5CvCtJTomp7H9AJTiuSnpzT36Lvb6iBhDGJqDzJQ4G03fbgPzM3gZHvOVIitLVUwSr+UrEXmstByfWpYB9/+8T58/9k3sPtEEw23Tm4sGQ1vph0xc01p9oZeBQk/veDHHlea42L/jF9/KdJDy7nv8lLhBqmbqtpdjQo2yZACLkbv5HRFVP/Ab7XLqIpXWpPY4jTwiR1D+NonbsfHbt6EdSWgLPUgoNLl0GyizE4WjzRuLzD79AozGEX/DJeigqOYplx91Uu9CqsuXp7PUOdFm6IicVVpqM5FEqxXNylLllVhhbCijpEY9edx85oufv3+TfjcDVuxgSa032gjiFvIkylGVjTdyEc00plbAdXUmjIaU2bLYtDLT0oOk6fiNVo4p1+mqcuRh3CyLgIWepn7Rhv4qzBv1bC7meD7R6bwd/uO4/m3CORJC3MdHyfIGLsnm/jBCzPUusew93gDM/KPy1XKMp/fTdAmsrk7cN2ikkp/vf/eUf+4t2/Ccmi5911ekpApBC8PJJT5ZzSloxp508HUNOHI/FXfY6dxGjeOAF+8Yz3+wYM7TG+pjaWEws8MAzFkFgcTP0ig9oPhD53jf7EZ0LugJeC1aTBqZYTAibCmEuLBjWV85baN+PiaGrZQs/idOUrQLjQpXVHzaMSmyXgVjvnr8dwZk+sDJr03Flhp9qrW1yH7MWQMah/W93lkPynMtENTN6BV4Vdxsmvjp4fm8N09p7nt4vnjMX5+qI0nXj2Crz/1HN6ebtNn9pF6GixPbW74j9+vd9E0dxa1fxuQLvr8c49XOhlJb8qP5UngmnZ1FTILV1+p5VqrFIj1dAp3rPHw2Tu24nP33IB7t6/BOKWip95vmhyB96oSv6hVVoYx9FoHTFD81MDS6gLwgJZPS8Drl6SpNH2LjxrNm/G8gYfXAb9z7yaaRGNY69MnpCmSaHI1AlgANYBVrWTfByaXLl5f5YMmY5Sm1LLUsGIgaAyv+IUmf+yVjZ+m9YCzzEfUOoSq1Yar5TOcOk62fPzwRIi/fmcOf7VnCt946RS+/9JRvPjG65hjXG5dcwrzJWGDXEmtK9Mx54nQQxb1TOYeXbUAVjJNGy7L0pSrU4CX2lYjslT3rjm5VwcpHlzVxT977A58+eN34PpNa5n3dEyY5Zbn8zk+rvyX9s70FE1x3qF6bC1ZoiDUFqCVErgy/HK10hLwdiItfGWhq6ldm/JTMgxjDg9vL+N3f+VGfPqhB9Cai5HG6raWmEoNZb5DM8i0qfJA/CmtbMBtjj5YknwfIo7K9Edt01GizxQOBUqATlZBM5XeKGHt6gxeZwLW1KSpc0J1LU6UV+H7NI//6tVj+MFrk3jnFME/6mGmPYlWMg/H47HPj27MEsApyv4IAnsYcWtJdhbff5YFwjM8Xl7oPfIBk6wpzeBJNoBD4CpIOypNqUxlXlcPqDuvW4//8bcewYNb67TSgEqVVk29SjlWBb0QGiOa1bELz45N3YFcXMVpPkuAVTDEMxl5RXUTA1o2LZl0/aXXXjHten0JG2iwNHNZ06zOhhmOzrSw6/Bp/L93N3Cq46GTlhGrHdVJ4bmaRK7LgrdZyBXuV2CbXjB8Rf8tva3xlxdRTgl89pnz0aJ4LkLiCcl4xVlAt/9QcUVbMysHrwRWRCbLkVAL6IuNupA0ouBRhwuH6XSSCE57GmGX7kKc8FnFx6At75fVoXeYllFqnOJtvXfqOxmf/hze1xduajM9lwqrZRGZexcLBMZy1i2LD3rvuwjpm806TgRSQmskNR4p0yEB58qC4DWNSuG31+RuaIkRp4bUL6Gtmvdolrc28PENq/GZnTvw0RvW4oYtDnxXa1i5C2lTXkgAiH9MEGqVrz0yKdUP71/4gj4/nJsH5yHlnDpjuFmL+8PYNw387wdn8L8djrCRF918DGGpRcOBPBkvYxBN389bqWTqlYrd5P92kUnXVRDSoA4z23Y8Zo6qJlyeozYjQHfWLXxy+yh+/bYNeGBdFWvoOFoRAasRR3aVMZTIJDS1KHVVOaSiMKzbK6iCdZkY/poU9UNx5pLUv/NSQUP1zGpyDBaZsgjaV0UbS5jmnMYHa2YLjcXVBHgmjbym6Ww1uimn4EoD5kGZ31SpwSpRIHkB79WqfVo10eP9BK3aPplL0kb6lmKKHKZCQYlR5vO6rJFi6lteX/jmIihvlhybXf4snF68XxwXebr43IWDQOT6PhIKjjQhcHvCRwMs+s6pVrrQonJZyvL3SmblvW63BafbxNqKi8/duA2/du9OPHrbOty0oYZ6ECCgCW0zLwuDmPnAl7nMzH47rublWkwmzfwx6e6TOXHWmYuSPmkJ9b/VkLiueMclg+GLlRuKVC6lJeA1/Xvl5zAjzSOGyYrzHoEdBCWsomn0Gzeuw2d3DOHO1cC4R+0ahdRMJWSJughWqK0S2NEM4yieV2wLSTCnCgAXbL0oz1cgKf8iAjkraSK1MkGsCi6CmkxbCAgxAPOMW2lrjdtVJwRLQYJCQcClKJTGLbTuxb94IXfMbWfulem6mIrjs89diIxi9TU+S81mKUHmoupUUMvLcLss39BGOQvobtRpjdTQsehi5FrJsIPttRyf37oG//T+m/HZ2zZhywYXdll+xoCuFC0Br6gPsr7v1WcOmX0+mbZO5r2zDnxmexWP3lDDXRss1PM2MN1B1irRnKlLV1O6N8m8Mp0WAbdHRax94C6P+a4USSunJZpftSosCi6rRg3MPEhpapqmKKJCg8c1V5Mxtam5HQJWwaxLrK9UrbRAbFSc6gJ42M9f86+f8+dDcfrMtaJMztAFHltCSR4jjBrcY1o8DyU3gJfR0iJwrS41JU1qdeS3LVoadgUJ3QRNw3vdKg+fvXkDvnbPdnzhulHsGMrp59NFcjQV0YCuFC0Br0BmXACFvumnwBP9a+oWhy4LddjGJ26q4/N3juKj21wzeiRo0zuibxxp6GB92JhOZ8XZo3MOVzbxG/JyYDRvTs2bVwneSsWY0ZpSR6ZnLr9ZM3pQwxqNqy3zqfCk+74fozKZUUR7hpgTxT9/zp8rxekz184F8LJIGl+TuQU2AqWbJnLMstI4W79CocTva+YhZjpTPD+Jmt3Bw5tH8LX7b8I//uit9HHHaJW1kep6VPQnlZ9+qTCg94eWgLevDWQ2q5ZRJrQpAPJKvwZZaxBpxgpVCKwvZ3hke4kFvBZfuX0Y1w+FcOI5ml1klMqIircA7vmoz8grvHyVfK1cp6YOTYqe0X2wNGF4tQqvNlSAWLNsMjtT5p1mfljwb7mv/DQVdGYr4WeiXaDiUNd7+/rRfu8ZE3Sqd86cN8f9/eL4UqSydOijqueYfN5uHNGAZjoDh9YEff+S1j2e550TWF+bwxfp1/7bR27Hb926FTeP0i/2YkQO3SMC33WHEViq4xjQlaLzaF5VNCwOhdFbaE7DPYZhIt9CxOvUR9jK/Qc3BvjMjVU8ssPDjjFqHYt+lYYVkolN4DMLGF0ALX/6YQWTwYc63ZshgzqmPnVcgpYuQo0uQp0+BDUxZEpTvSqYRb/5YAFmAqRvwSgovnOoOFVcYw6bv7PIJOIM9QEsOufSBUn1vQHTrw4lSo/GOSdujm7eQas7RaHSwNBwhlt2DOGLD2zEV+/Zgk9uHcW2ugXPifn5XXSDYkZOCzVYSTGX2XLCgC4/ndfnXYQuc2SIuywGPlAUhloc9LhLOa6lvVbz+I71Lj550xAeua6KG2pk9vYsObgAbsG0Rg8zol6QHdkPOr9CyTQN0bw0zSimYrkwhgVgdZGUBnbqNYBb9dbKfWopXaPgM7VdqtRSNvA5NdeYc+chYdCAVjva720X6NwTy0Vtj2QFZDTtM5UJgWv5NPcJ3jxuwupMY2OQ4KHNo/jyXTvwWx+5EQ9eN47xivx0+b5dNRbxqwOWNkGb8Nl45ZbZh4EuAN7zEPnEYE410XzKzeZpNtG0TmvIOwoexkoO7tlew2M3DuOxTT7u6PVv7QO3YErzU0RmgMzIFFYwyeqg4jFtpGYqUVXbGixrnSGCOKAhSj/YphZ2qIFt+sVa0cHMwCkQS+dldEHUhMbntS3yo5cX55DRu+ZaPyyiRc+YqxeI47zEe1XnTX/ItOuaQRWZVlmOsa3q42MbV+E3btqB37z5Ojy4fhyrqzYit4uO1UVoa8YMn/rWRYl4NjNhmgq4AV0pWooaY+ayUA1nKKiAVVA6V2hdmdO+3TbNQVZEXzDz6PJVEPhlrCpZuGXcwWPbRvClGzaYPrD9uMRoBa+ZnwLAPQyvZJK1oVXnSpZHgSWPUWDkN8Ty/xPT1SH31HTiwyOI3XIFjmqnpYHV+UEmNn1lBbkhyr93R7386lORie+aXKanNjyCEi0ELT+KdovfEGHDSB2fuu1m/Nqdt+NXt2/DzR79+cl5vjVDx/PRLVWR+Gr+I7uoRyiB69FV8iisB3Tl6DyrBP7BGVAZaPf2zblekJlr+SYYTUz+VFu/NDKPUHE9rKuWsXFMnRpY3nOn0GzOmSVDLAJcC06T+8nbNLtdGymFgNshc0uQU1DQa2S8Re2s3mdMzZRCgsHMLlmk6oLBkBE2lw76K+4vNucj3aNBDQkDvUXKMN688EKmz0RVxKTOIeobbvXnXdJZAlyzXWYKaUhhRwNUoFYEekhBeSPhyP0iFPvG3iYVNddmpzhe+FAR301hkms2TESMm3nkybDnezoRgijHcE5Aoo6ZvIJYBdGcwXAyh7spaH/9zs34jYduwi0b6ii7mrOrS39eS7Y4prOOz5g8lawsJOPm9Le9118BYu5Q+5NhHB+TlEG7piO8MhdjKB6XaEVsd5mlGRyzLtS1QCpwumsXHRJoAKptcVjs69zi8/qhSUjmFH8KuH3L12gpnhitBNhO8H7pxhF87sY1uGPtMIa1ZAjz2/WrvM9B3KEf1WrBM4BVBGozJVDkm/FcSrNMvZGMaSgeVjAM/T6ECxGv6bImyhBwjdnJM0VFDL9W/msvDsFLk6NpjmL1xLJ9BZnPFHT6dvqZRhDI3JTZqaBv5/f2QatcKILOnQkSNAKyvG2FAtQM/fZjzQVthGpPCNJHzyMKQRWMBmSwjNTOi7CFctzG9aMlfPaOHfgHH7sTX7hnB25YU0LN08LeIWy1IlFLq2LOYVyetvrOBfAyfrHAFSSB17gvfVL6TCFQW3BT5Je5cvXTBb5j0ddfHipM4wJ86rt/75iLz9+yBY/dvAO3rF2NOjWSGitcZnweEg6dEC4lqEUtrD636o9sGEPMKW3CeFQQYnsx9MompV3STExOEBG0Gq3kVapmmQ+bQTN4GFNF0+uoW6XM1z4oZVUQwQuB1oe+uwBq79vNxogAc80A26Cempba3Kc15CXUkx0KltiFQyES0byd80O0MIX1yUnctQoE7mb8+sO341fu24kbNwyhYkXUZB16tDGx3nsXqV9TPKgxXnl0WcHbB20/aLC21qi5Z3WAx24axaME8S2ravDas/CiEFXfR1n+VEZG0wAILWOi/sGGT/jT12o6xSBcr2xSIglMLdHh0DcmeJ2gRPDym6vDBXg135OrQfwEpISW6dAhABdBhrmCNKoBbhFrj3gssPJ/cVZovC18CgtujGtB8GpSGt+pMTk+UqlPqw3PnsNd1Sa+cucGfPX+63D/1iGsciL4BK1G/pTKiiNDFEVFvAPArmi6bODta9zF+6ZJotuhGdehmQY8ej3w+ZvruGcsxGg+QybrInICxKUxalw+qyDwOgJxD8gakkbmVAWpzPMVTeL1ng+huY01TYxZIlXatqQeWTVuGej3OwS33WtOMmOfCWT5/mkaE9dqh5XLUGhlodUMdjAautDGBlYGyEVQ1qRJCrXeJNT2ObV9xHzrtuYRhG2sKbv49E1b8K+/+Ag+ffsW3DQWYNyJ4WtiBU3dGmt4J5ND4WJ6Wy0DuP3yHtCVocuqec8l6hR0UTYTwan/0TYqnce2W/hnH9uMB7fQeI5nkMw3qIlU+xmRN2lGGmY1KOBGmoD7NAuNRtJY0hVNSquylFtaDZJdWpo25blcQKUPbBFYVrmokbY1g4dG9OgZAUEamADMaU4X4FVekHoAlXXc3zfHUsEiWTpdzaHFY4/v9TRtbQNJOIVSMo87h8v4zZ3b8LW7bsODN2/DppEKAovmMSNUC4FD4dJh1jboJ3cyh+nVbANMFvO+HxbTYkE9oCtHlxW8/ULuF7hqKzvBELpiUEQYtuZxQz3Cx7aX8dnb1uIj142jqmXuO7PUwrHp1G8ZbidjqIZZvNuvvCIzqwLLMOgKJfP1faY2ACsGtas7qcROTmvCzDBBLWxXawbEZgoemdHS2MZN0Lcr8OMVpG15rgCqMkTbM6HoLsIo+hOt0ZpBOM08nEKtHOG+baOmzuGrN23HRzesQsnNUVXfZtcxAOxGiZn5wvYoVNwy0+ogYv6fC9gBrTy6bOA9F7gKtiptAi0hRdYjI6rDRslOsNpN8PB1a/Hle3fi0zvHMJ5Oo0xGUtc9n4xrXDQDYPGu/GeakdS6CiublGaZuj1ztw9gHqfcaplK1fxa9PUh07Q3RnihQ4dArGl1VCx6XCBSHOag2D8LyOaaKvI0XFNNQYw/bhG4DawrJ/jojjH8+gM34HN3bsN9W+tYTZc7TUIqeuaxXywWp/WFJSt8CpUy0+WZ2mrFe6ZMF1Nf4w4075Wny655C9CSnRjkq0qxaiYK/lITk3vyMqJOhg3lAJ+7fgT/5I71+OIGGyOegwodWzUzyWgrZq/hj4IYVU0i5uQKJjG0rAeCtagt5jnxP8/LBDap7wFYQwwzgVba18xE2QOxWfvYLXpimeYPksHJIrBw15jQ2jH/hLPjw01yjPI9d9XL+OKODfhHD9yML993A27eVkNQ59uDkDKDQsKUekal76JeraBaCqi51SSUswwoV1Rx2KOLAXhAV5YuK3hFfQArOOQwL22i6ljwbK2L6yK0qmaRaz/KMd6lCT1u4fc+dgNGqYlq9L1KNLF9W6OByTTiEfGOUGCaXy57ci8rGaaW307tq5QWdW/Mi+IySR08GHgx4TfmnkctHJgaaROofV3NZMJr0qYCqGnTNUGZwWe1b9yH3jnGp5kxOk1q3CjGzqERfO6GG/G7996NL968GZuk1O0uXZd5tJ2W0bqUMCZIyGgu5cJSiJko+s0xze5UE/ctBe25NADxlaX3DQ2m8A3oyD3SJDwng1BNiMKgBrjrZODb2D4a4P/+sbX46o0eNg910EUbkSpNvDVkriG5y2SokKZhTJ+N4NZQRUavaiwxs8BgArm96NSh9lIJEALggw5Mm7pBmkH60ogMRddIzfHEQLGUpYQkfXt1ENLC0zBDDMuwpYVLZaT0g5OSbxY0E5jSTgtOHCOgJtaE+FmkyixaOAR/Jj86bWF9dhqfuWkcv/2p2/GZh6/Hzq3DcAVUzaBJnJcyHxWtJaQeGHRgTGnIRO8PoFA6VDch053bvgA+l/rnL3R9pZEEzFUf9KeiPEdWstTeTxKAxRwsaB5pEL/d0ximbkaFz/+yb+Gh7SV88rohfHRLHbeMemTUNtCcotWcUCuV4XlVKohCI0sjmQ9Z+BpuTVy9YKi//eDIMLSEUi8NC3mt872gdJlkqyqaW4HbSDOXwFZfaJqwJqgii35pkkU0eSvMg2K63ahLIUagCcR2GMGhtt1UC/CFO9fjc/dswiO3rcX1m8sYqiuPqUWFXAHTAFYOifZV7EpnLygN2qrSzASduzD1v6X4ngG972QYST8LHGXo4qX0QRHR6LgRblpdwud2rMaXt43h/noMq3uUqmmW2oUMZQ1T+daotVSBJe269GPOMNXK+KyLE9PeS74RYkyy5pXWYAaNE7Yq1JIVWi1DVaTc7/B6lESmTdZNYnjtFkbjBLcMDeFXbtmJ33r0Njxyy2psG7dRd1O4Fk1gs0ypjZgCtEu3pStgDuiaoRXB5TJzk6yJ1QTwQ6tK+I2do/jNm0Zw95qU+mIGebeBOKKmoQmdErzFhOCF5iqo0AD6NRMIGO0mU2NlBv6cSbvOcWNaxiikjB9cDmATsO7YGLzNW5F0aIU0ikXMPNdCOj8Ff3YC966u4x89dDf+5WN34qGdq7Fz1MWw3YaXN6hwu1Smcio0PMEynsdKr6sf0LujlaGixMtdasw4hW93cN1IZvy3f/LAdfjkxjpW2xHsbocairAU45N4t/ntA9eAQPH0QbGCqUi1fpXYIt3qO5VS8MiHzTTW1vdN76zU1iD/VcDoatjVsmlqW1NJ8bn7d+CffvZO/Nb9a3D7uDzY1CxyLbM6CQlXyjaHfxJk0reqb1AY0LVDKwK8WpGu5o3BLdWRkNNCO8TquoVfvXEbvnLjDjwwXsMqnwC2W2R04yUWGrbvm5lODQRBqt5JDMasLoC8EoOoZylrj0EXepuFXQI5oyYOy6it2Y7KyDrUK3Vs3bQOv/bZj+F3fu2jeOCmYawNZuCF0+hq8vu8SgFXp9vKoGa5jFqcAtFNUpQIZhrhA7qGaEWAV1pI7YzSOGbwt+/CLZewYdjDBtfDaBKikjQReF3D3Qvg1ZNCgci0Cfe5v2D/lRr0u3hrdvrBjF1W0L4D39KqE6qx9+GV6xhdsw6brtuKdZvHUR3yYAc0iB1NCKBxxD4sl/6y06tR1uD5mIYzAWwTwKbn2oCuGVoR4JU21ei4WE2kZMDMrZsJv49O5Xjn0FGcPH4cUWMGfhoWADUg5YPkcQPdRTxZtI2udCqAa36LnSJQ/iyAVzPYcV9txe12h1qVmjiooml5eGeygbcnW5igmRK6Q0iDWiHQVJoMwj3xalatz1StLwGnGwZ0TdHKAC+5Ns6bSLpNmngCoI3jMxm++dwefOOl3Xj5yHFMzzSQTDWgVe7NBOfSwCYsRGL4U001pra5r4FXaDCDDrRvUNvbCGgGwL2QJOhEc0jyEBb93Y4X4I3JJr713Ov49kuH8NJJYH9cxnReMYLN0YB8PpPEMUJaKxFhLN/ZTIinmmw1jg/omqEVAV7bzhFUY9RLOaoE5tzxFn78zKv4//3gKTxzYhJTXgVh6qNxaMIMeyvW+xEAiucNS1K7CLQyp8341hVNArDA2wcwSZVxLA79adYKW1qX38FPhzp9R4kmgrMR11ahW92AJ3cdx//+nZfx/RcbONHgLZhFkM+ZiQGRtYj9ELlHU9qzELGU28ySbu9VA7o26D2DtwDPUm7on18YlE9G7VITdGnHxWRIjXNNzHxUOf3cFG7aQU6NG6GKU7GPpw/N4M9feIca9xD2T5EPI/px5HFPU7TUImTTR4GZE3Ca0/DCJjz1vMoTxpWT4XmjRiVpjiaZnWobkQ1JMBhgqGeW2oxlXxp8C0TF5oMNevniIOIF9RBT844MB1URc0vvH4Gtxd8cApOWRpIjylzM+aPY1fLxJ7sn8L/8YgI/PeHirWYdLWsMnj+CsldinlATZ104LAXKRTMss5+EM2lhYHYVtjYPTN71haO5c+VSv75jMfWTzG3/G676oD/zPb1v69F7Bu/FSC8USUOGZlACX2RMWZ4jP2kFOfmtMZ1cDZfLbBcnWg5ePtTAD3cfwQ9fO4Q9J6g9vFXwa2sR+JXCn7NiWAQsGPIOTehuC3lMk9L0JVbvLYGUcQsc5mvNq8/emv3+CVI/Vz7QoBeL8c5mvl4xMflFMEQsSRN7vNeRr69B+9oQnHM5ATvbwY/fPo2/ePk0njnYxWEq3i6BqNX/A0edNRLmi/oxmxcUzyoUUevUmaTIYrnK/WPzPfxRPl4z1P+oc77pfQFvn8SnMaW449jq6Wc0pB23qAliA8aE2qRrBWTCMl54ZxZPv3YEv9hzFG8cm0MzosapjaFcHaUmqRLrrqnUUgWOduKIPl23g1hr5mo+KL7L9C1WLyIJCn2ZAXzBiabPc7+DR5+Dxb0rmMSAZiwzM/JsSazv0W9BE60E331jFt/fewI/f3sC+ydaaEWJyQut7qhbzwBWU6cntIAYN7NGdWNm9g3mVcqsy9yirXlAK5/e11JSM45fKhGo5A4CV0ugSBNkUcdMlqZeRC27hD0n2/jbn72BH75yBK8da+B010XkVpA4JXTIdSEFgDr2B6Wqmf1B2icP6dN1OsjaHSRdanc1hRiG5rskGWR2GtOT5/SMrhEIWn1d8w6bGRtXOnj1qQIv02zW1KUAynjS+PzKUt3DbdsJcNxZgycoAL/+/Ju0Xg7jzakO5mleR9TZsYQWv7eoCugNVzSSi+d5zDdQnJpJY7U2AvcHdDXQ+w5embKqIYYWc9ZgegGJTBQRYKfJKc9RU/zlk8/jJ28cpQnYxbxbBupDAIEda46rzjyiuG18waBUjHaRiWwGvWv+Z4G43UZMIKchWZDAFmOamRd7QRVixiI0zzFh3GisrOHlFU2EluoNCDyzVImCEVCLiV/hesyvYXSH1+ONTgV/u3ca/+npt/Et+sMnMs/01NKATDvUsEFmgNp9Ne5YPgyD5snWgBH9xdTKsRlyOKCVTu8reGXaRTLfjOnKoNXzLQ9paQgHZyI8uesAvvmzV/DsOycxS54KPR+p7GtXCGszdR0gIOB9ah100I7o5yoemoLqlWXUjhqHaTrn7RaSDv3kkBKBgkITtgnkGlNsxtXqsYVA4EoIyLy+InQuAM9Pyj/pxn7o/xmdySj0+UYCqWIqpbPreZj1x7A3HMbjRy382StT+NYrk3hzoo2uXAtJME1CzpDHjEkWSzc0o5M85pfPyALmmgYuDmjl0/vLvWQ+VSZJW6QEbeJW0XKqONzI8czeo/jBC2/g528exzEtJkjGszV9qTrgWtIIWriZFwhk2xHDUiPEIeMh49m8l8H02hUnR7yf/q8qsrJuE7nWjk0iM9Dc4buN9WxAq7iLnWI88ZUCL4npumRYoMX7Ih7zM3RWQRVSyPntURMhodcurcYJdy2en3Lw9RcP4buvHMDLR6dBw4Z+rVdMhmf3Zuxg/jm0VlRTr5k0eNaAeEArn95X7pV2C6jyEprN3cxBi687QUz+7I2T+MGud/DiwUkcb1v02WrUjA79WSoPM/6UWkKelzSKGJNkIGj5SCgEMgYzwJ/PGOOXzKc1dxB26AtTO9PUzqWBaVZbMqPJlMZkFvF2zSWloMqaFU8SNkq0tv2g40Ukk9fL+f0RM1czY2iVhvIQGlmA54/P47v7TuOb+6bwk6Mt46pQdiL2GIcmAKC1YywjglftzsqrKyjSBvQu6P0FL4NLIS/wzncTHJpO8exbk/jmM6/h+XcmMBEHSCpjSJwy3DiDo070aWakv2VmnOTDEbVurGSWid1hRkrw8rxWc88ZBF+B3jSHpBFB20LabiDv0JTWdKgCsCqplCCSzE7zS3N6oTnmSlBfu14siJRwmQ2F074QTIVVL2gxb60/VCp5qPo5vGSOXsckARkhq4/j7XQUf7s/wf/x4gk8e/AE3p6JMU2sdpmtmrVDwxALE0aCUqH37gGtaHqfhSyZgOZrpVLBbKuLZ17ag7/4ux/ihTePYj4lcL0atZ863XsoOb5poIybXZq+KQJq2ZJPjexUGE1A3iKTaVwMzWWT7KwYs6sKMY8SIqAJrE4fmsjdaKAoJOjlC1ITmVrmArZnfq4OBu375waxZ20XkU0hx7wKowRpcxJB5xRqmIWn+gLXx5w1jMNYh5/POPj2T35Gl+V17J9qYo5ZQOeC7oyNyKYAkHNC7av65wGtfFqySuDv//7vm23BMGeTaWNkUGWQRVCa5gaauRmD+tFGqiTic44mlArJCGGKZrmCF4/O4rsv7cfje47hNWrfeX8EsUtQ6l4+51tqqsgQU7tkrkOfzGGcCqbeuHi50ZJiKjKkMa2LGmXh2AzC0bO8Xyv0mZNhbxJ3tesKvPoz13mz0WIMejxRxVVReaU/XmDoA5tbHerey0n96C9JvbQYLXyeh3rlYS4pS8x9NKL5LSlz1qzgrywzeZCY+ZhPRmUcmMowO68eblWMlh0MeXRBqHCTlIJPCxELyMwXzVqiErBNC4Ei6gXla79G+gpU+vVzwmI6VN6TlNW7ZkLsmo9RT+p0wchLLoU377SvkVUCTdGKnvpPvR3D5cujPnBFquk0NUsqy0RNGTJLpQW1X8z2L4aPqB2fOzqPH752EE/vO4TdJ2YwnTr0typIbMFWPlZMXtEM/7mZskVLX6pCxRhwRlvyZQKpAayaNIpmDTX/KPXqSqhgBrKrBlrpUpAfHIZI1ZFDNdEazG+aq4pvKFhA37ToFMkAwFzqnySADNB7N16OYF6wHDrnuQsF5pMqnOT/Z7RA1PklEXCZBVoE286Yxxnzglk4lY3g7YaHnx2Yx/dePYwf7J7Ca8citHOfIC2ZBcStiOXIaC2Tn8xxxh3TitGAB+WHJkVQ/OodN6APgEw26+fs/H5PYlPVPzElXkjvNFQ/5Vh+Fn0uXrNZoGqWmKXZerjRxLd+tgc/2X0A+0/NoEVtKIlt0Rez8kIzxrw/EgO+GxKWetsi6Ke/r0P6wdTgOszJcBlBnNEH1tZSk4mYzgTKZpuMKgHAGPuhAIUeLiI0y3heAyQBS6kGK/BwNOrihwcP4c9eeg3f3HsAr8/maMcl2FEdLrWzY/t0WZSHFJUEfUqtrWGGqmtIKBxjtR6YevwBXSl6T+CVjG+SnyNZJPRVbeIBbfVy4qEdYDpM8NLRE/j2S7vxvZcP4eWjczjV1uLUnpmDybUiFnthnuWqje6DbxlkMKUdPiNMLT42aDX7gEftbSztXjswCF4TKFRsAlqD083iXaYdielQMOahiaFHchHOOXUVk9q9fVowET+qQRCeDHP8bLKFb795Et94+QBePRphPiRLuCwnbpKIgGVZajqdUqmCoFQmeE3VhOlSqbIb0JWj9wRew9QsN/G9R01qGmwcVTwFmAxBH7eJv37hHfznn7yGY0kVnWA1UFsNrzwExyULqVY4543Gf+VGI32Wywd8scE6g8zEs5/rHZsb+HEG0AzSpDKZe72xQDPaohktEJuJpM1k0r3QR6sxR7mlhjZrBK9okvl/6WDsCzq3mQSaVwZGNwLDW3CwHeC7rxzGX770Fh4/1MZ+tbubz+/XB/BA/dLp4shq0qTsjPDsrB/QB07vCbyS4FUrhBPNUwQTDPKN3AAzVGzPvDWH7756DE8eaOJQt0YmGQGCYW6rlNSe8WMTAknLWRqnTEwlcIi3lkPCYg+chVXLH7Pth8I4NN0IbcJbS3doILquqS2YoM06LWrhNiy1BRsWzXo9seg79qLr/xaMb3avepIIik3dAb8t83hAMzmuIEorOBH5+NlUC3/69kH8+d5j2HtkHlLCmaf6B1pHzLdOY9Z0s6y4GbysSzxLAA/oStF7Aq+Y3ctaZplI27Fphnk41gR++k6DZvJB/OSNCRxu0qauUrKbii3LVJYkKZlA7bOmIkRBACEy3gU6Fkzls0Cr/cXH0ul8Ic06h8B1tHC3UKlaUgFW3SnDDsHLQDPa6pnRGnJnlDCjMBljXtQLK50Wp/UCwQg75YMozuB2E7g0ne3cR8etYD9l208m5vCtNw/ju7vexsvHuzjNLGvTMopMJaKEGwWdra6UGkPNiwO6YvSewGs4QaaT56HrlnCwleEn+2fwN8++gaf3HsXBaUnkClCmxpV0jmiHRZFpetCC0+Az0CRp6iklpPX46ZKk+5aAtr/fPy7OpT1/WprXooAxLRpGy5PhZEITsBoLnDdlRhPQYUQQ0zSkFaBb+1EaWumqV8AsNhcNhtQllN9jpRRYLEMBUK6r1hAOMxet2MWeqRDf2H0M33j1EH5xNKRZDTQdTQJfJ4ApCCXkKAQ8uTsDumL0nsArbyfLCdw8wIH5BE+/fRJ/+YvdePy1AzjSiKiNffhkBr81j1rahpcQvPIvKfot9al1q3yzwFtoRDN8dAEpyyABdIG4f9YxScdqL2a8KU1h1SCbyii9x9jFqohKCF4KoEYTGYN6ZFlRoYHl+hoy8er+4vBqJ9WaW2kB3lyDP8oMFQpUN0ZGCwTMDjuvMbfG8Uqriq+/dgp/+os38MN9p/HOfIq2W0YbAbq0oNKcQti0qQ/oStF7Aq8ey/wh7J9o46lX3sb3n9+D5/afxEzqwq/WUfMDlJM2/MYkhp0MVaIhEGD4l9Nr0sB6inAGMo803XvRbEsA29v2SNqW1jrflfIV1LaqWebX6rxDVWOsR7UFt6hWuiEymdIa4GDaRdVmrdTyJr3HqO2rnzT1UF5MswGULER+jLbdRuiEZrhljcZwfT5HKR0Ctt+LKWcUz+yfxLef3YMfPL8X+47N8V6XfjD9ZFpNocpwQFeMlnDlHJm1w5DSH0KbzJwUmqtrqSOFahs1Gwbw3HGPmnYaP3r1GF4/MqV6Y9TqqnFO0EmalM6hGd43QwS1bQexapkFGNVWqgujfFKBI3eIFybjHPz2uwWanl4KMvcIogJSxV8BKkWqoP3+Md/V770hQaE+0jLXpSmYFhnGqoQp2nTb5OWQJmSb3zyPNKSlQHAbk1Cq26w4H5jmMCumANLEAAbcjErvl+lPn5Efy6B9XvigA6mfCxcLJtGydPWMuqVphvtEglT+rE2/luXsqbdbC154Gq7HsqP7s3sC+M7uOfzFcyfx9JsdHG+KLfgsBXMbU4gTlil5QkygGTuYk4yhwROyuFjOuvZ+kMrHbHsbbfk69SwzzMZjGVzLCSudzpfO3tefIQ3GNrXBpvubcqLwAbXYc5zYmOlmODjfwQ92HcNPaE7tO8HiIxZTl2aw6yLm/RG1aUzmz/0S2sxE9Z9Vlz3zdlVymIoOpcbETO1oWOuCpKv9sPjIAHhxEMj7+wZ4CjrWu4tgYMf7CjtASohsS7M+7cwjac0hac9TA9OE1mgk/RHwnuubSeACah2XQkSWQn+9JMVoXmveaX6vSDjvyXOCkYP6fB0y+RYBbFHAaapdgS5m+USuJsmJkDMvTG6V6mh7Y6Y56Wf75/Ddlw/imTem8PZEikboUCxSEzNOieMOWUaNCFqKtGTGDPOkMoXX3xdi1Asb/fC9ZqPtJXjqWqAl2VpptOBEHQpkFmGZWUHpqlkFfQK33fWwl0j93ptH8fcvvY7Xj05hOnYQeTXK2ABNKWppOQHZKSMzlVK9iD9gOvu1/A6J5QXznExLTtb0PJ40eir/Vz5fGxnB2545jbg5C5cWQonizJdeornt+R48LQTGZ3I+kyXU2BmvWxHBrZG01EDXAKnxLCEiIwIx0yyUQ2PIqqM43snx9OtH8J2X38ETb5zE3lPU0q0hAjdH05tF152kZTIHp5nDaZXJN2U0qKCbzsC+fj9oCXirLDgvpeYlQ8YaMGBrgEFmxrofn8nx5Osn8f/94QvYdWgKJ3iu41RpMdZ5v8xGQUYmakAGIKhpYhZi8QpQoQ4LUhoW0iFNKeBS41gOhY2NIChhdHgItTKFTdhEeuIgkumjKHUnUY5m4LSn0O50EQvkVF1aQNt0LOFXZurqSRfBztpwcmbINUDKG8dnXlAdpxHLPnMIzArmWdZH2jaeOTKLb+4+im+/ehIvHY5xcLbDnAhRcyTo2vS9NHc0i0ADxajiW0YvD+hy01KDJo3g01cNyOBJFKHRidAtuXjheAt/9tOX8dc/2YN3pi041WHYAYFLJo7VycJ0+qeolj2m2igtTaJuiVcMvaTFAO5R4UNrR6m0EMc+OlnJ1J7Knw+SFmpuFw9sqeNzt6/DF25bjfs2BPw0rcDHECeUUby3pFXsa7QuPNM3W530rxVLTcan6ZqhgdKyfbsUaCEFE7/Z3bAJreo49s5G+PqeA/h/PrsHLx/PMDvDPGyrfoDCew23NWrjKESVPu+qwRJn7wstBW/Ng9bAdWkOV+what86fvT2FP7kuZfxvT37cXguQ+CtgUvz0UxNQ1PTTDuj4WQ0Ma2c5mMWUgux8NXj4UqQ8Klg9vsH5siQ2WPSzID/kQ1IcuqLNtNMwbVtvIRP3bYJv/HQ9fidj+zAV+9cg0/fMIzbtqzBqgq1Lf1hDXIwVQI+AezJPSghcWhcm7HGVz9pEr8sbKFC/zcImFuqrctYvrIyVO7limnfP0Fc/3hyHn/y0wP43gtNvHGS2jmjj2x30bROUQl0UKGl4mhO2QFddloC3oiFEttkxKyCVtvBXvVTfnY3vv/mIezvUOv4NdipT/cxJcipXcnwtjxdl4BnITuqSaYvKMldVu/2AipXgARY/hO0Wv7EBANgVWaQQVXpJNmiWugkQYkWw7bxOj56yw782kO34tFbNuAjm6u4b52Hh7fW8dnbt+COdTWMu/RruzQL1UdavfRNLbZHrUuhJ61zLRAzxmL5atBmQNcp0GBflrGsqTSm8JKl5dImJq+0ujZenszx7be7+Jt9bfz0cBenWkVFnuYSND1ArhQLXOO0BLxaHCPxqpiMHDx/cA5/88xePLn3GE6HLvLyMByvROXTppmomX41obpFTeyg7DtmJIpAnck3ZFyaJO5KFhzhagCrJh1VMhV+bgFcsxSLKqkap1Cjprh+TQ2P3LINn3ngVnzi9p24bqyMMZ4fc2PcMBbgSzdaeHR7DXev8rBWM1SkBG8oAEsr8WWyma8Ru1lLwjgBhTgtsDimtqU74dlFA5vaw1NNL2QKWBWSFUQ0o19sWfj6O5P4+u7T2HU4w3yzijZdkjYzXNPtDOjy05KZNP7JP/wXSChVnzs0h//y1Av406d3IRveiOoozcswRzw/R1NRCsc1YFAtrG0mkVKvK/W8UbMQ9a5F7c2tAL4cKir5LxMxOYVvK+AW4DUjjHqSxKyeYPz0LurN47hzyyg+dec2PHrXdbjvunVYQ9dBHfAzdeKwXZQDHxsDGyN+hkpQrHek5TMbXQ2wYDyKi7ToFVc1WQ7LjS6BJrtPYk32rl5w/G7mo1yqQljZKNHtqBPkqm2OyQ9ztEROz1LznmqRF8oI6nW6FBRu9JvLy+yNVVhHF6c+p6g5T7OuTNBre2UmxMtmJg1ahlZOHg4pS6lcljuTxlVSbvlT/2tv7zzg/Z/+8P+Ex3/xOv78Fy/hZ8dn0amuoXIJkLZSYRZWiQXIAskodVWGKbWs1hyKWciJNJxHP1DDA2lC5jIrNbfoMuj9AK/4QKDV1hzzUqF1+S4CbqTi4it3rMevffJefPKu63HjhhqG+ZFaoEu3mFHHdslYfnbnCFaXA6xeswbl4TG0UguT8y2E/HbFHbg2XN6oT77aSUI400JtApznGwGtOcA0IF8ki8rROG6elzltxR14tMRcJ0CHoD0wm+Lld46h257D5lEf20ar0HpLl6KizC59Xz+LB+A9B7xf+Bd/gK9T2z63fwKzeQ2pS+mpmSjEyo764RCkprbGERK41Vcz9EcKmY4ROq9A4JpM6d1zsbA4rgsEsYp8UwNAnTPvVOFwn4yl+YdLWYoqGWoob5hjdbLIrICppzXAZAd2jlVlC9tXBXh45xr83qduwq2bx7FuKECVUTlMt4G5rArG75CZjACQ6LJ93uNilEAdc3IEcRut+SYatCLbbg1JaYjp6BQjmfisBjmYZVg0YokMpRE5YnbCgMea2vzif8V3XyFSeahTjfJD+73yMetBMT/UV1wgT1KHclDpVNlr9BgFeRKhSatmlucP0JxuxTm2VVV7rboBp3iecel5tbXzKZ5LTG/ZSNPwKCrzZvWBo6IQv/F96kxiLoj4Sq34oCmTCvB2Cd7IzGFl009PPNoDAq96vV2KrmA2L4vMNxf8kF9sDqtXp2K8NdPBdKgqB/o0Khhmhro9ZtRIMjktnrPImCpbQUqTd5ugzBXDak4rZrhZE4cFdOmgNxeJu2jQvdQAxXt5TEZaCOaOAmhMkUmG2nHFIAK7pmhXZ4sRJ8LtG2v4/D3b8RuP3IQ7tq3BOprJFX6fbcYX6zWKz6apSG2q1/AoNxPm+dTKGTaWcty/voJHr1+DB7aMYfNQiZqHLwxjKqrAANdoKp4yGCCDFgKglze6dxmk914JMtAi45syZHrlYiwuIjNtLvPB1Bvk/Fbmi1wlnuXlmCClgPJcHCKonjrcwTdeO4Uf7D6MfZMdNPjpUuqKULN9qsJTgOce4yBqteU9Ztw3r6unn+I17xdp56yDRdte+pho/hTnimcv8dcXTis1GOp/3BlaonnHH/ltvHrgJCbb9GN6prFZ84cZXEhc+rQGHgVgLh/1E3kJYoK02oEqoIqP0XMMShvNODGA5lhq21VaDRUyAFPKtNesEOuCGHdsUFPQZjx29w7cvWUYfg9Ii801U5g9KrQEmYmX9dViDL1bbeGlKs3B8hC07nCz0WCYQ4k+oJpa1PZt8l4mp0Y40bxTevUWk3f0IZdDZ1Ky8khaWPaDzFRNCGiy0ACbwZST8stGs9XB0VNTNGWrqFaqqNFyqdiamUOtFbEpo4TWkQaN+CpWCQZVekpQU6O7tJ6KfuSKj5eLTDQ8qQkezjabe5rXmM20xq6J2SN7H0xarHmXgHfuus/h8HQH8zRfYgPQDFXmaKbO5zpSs4hMJGZMUViXISyX9EK+XxpVWl2dQnKaTtJmRTwSLDSP6afmlfXkCx4RbJWkiaF4Cg/uGMG/+OIjeIzg3TZkoaI5K9U5QwDtAdYwHsNZYOY+30KmUBIMlI1WrtH8Hht34dll5J15tGamcOzUHBnZhetTz9PENkSTXrNiOjTxfAoWGuTGoFkOrWTwUu1SUNEaI4gEOJM3MoMlmJg/Nr9XfnMr83C07ePkLF2MuVmM1UpYXacVE3dhl9Ts6CLM+AwfD2gZyb2wacU5LGvXlLWEnuwWaWEGlQPzcADec8B7eMOnwDygNGRmsnDUG6FWcpGocwJzLdPk6GRAMfAy+e8ykkpNhS3JzEKkyWV6ACkhhlFMNTiDmIf7UQNu6zRuGHPw25+4C//w0/fhhvEAY14Kj75p3KV/6tfOAm6fDMP0gsCrXlSm4kow1sgoMo5jeSiRWWu+g9XVEmqeg4Mnm2Q6emu8N1GFjlYj8Bl4QjLGzciUjKUwFC9OJjUffCYvm8wEfhKeRuD1TWtlEvNf5dEDr1bESINhdJkHM3MNHDh0CI12Fxu2bOGzvIfnfeaVZ6uTT8dYvZatZVikPEg8VoWowKuOPwa4A/AuBe/Mzs+o/pB3KQi8OaqBYxazFlxzgVeatzgyz/zSVKRrGaQ0sUCNb2q8JKGJGk3SWT66rut0jHJnCmvdDj524zp86SM34bE7t2LnmirqbmbmY9ISLF5QITPoe/SZZ3/LYvDyx+SJJvO2+V4xTZEGdUzxUKVjPF71sXpoGF5tNbOmS+ZsoEutlJUC062wmMWSxxSI0tqJ6hGWQ8vOmw+eVJnn0wQ26y8zmKxnMFteU5aamn2dYPnIkptthZgNLZxupDg+3UJtaAT1sturLIwRqRJKWlc8JgWiZxk0d7TpA2PwPACvaAl4q/d/1UyurQZ63S/e9T1mfBwxM4QUZYYiuozgNVQk7uLUA1OfRSitXbU36xLTp9kgfRZo3YpxnTuLj9+yEZ8ncD92yxZsGaOWzDSAgAVLM1ZNXY5fYUEX7y3iLbbnBv6Y5BW1rjQP+W6d6idZwwQrnoWRqo2R1QF5zEWn20Ir7JrBGYaB1YbEfwkZvTO7BsArzKqTjkxklYhW8DcsYexalorZZ5CwU0881+M9LpqJYxY8m2pFiMIYDvO0TNfMp4ViVjDUGGmBk/EYL0V5wPeYJiuT8XI8eG0A3rPBe9ev/zPjl3SpabWURFExRN5LqXu4L3/G+ISmuC4nFYm7GOkOn4VoDDQWpM2Ckx+ZRQmydhNVMsjqwMKN42V8+oYhfPGRO3HvdWuxvqbh9DS76GOpFtPxyuSPkhE/njiwR+cDbj8oFwRa8ZLpqcV38+U95iyCz/N1KtnhagUe09fthpiemUNzrs17PXilkhlSqFi02v0l6UyZrUjSp2vFfgFK8smoWkPiE2lk5g/TrwpDX+Y1j9UPXNXNWu0x8gK8s/8AGo0GJWCAcqVGEFMY9yypImNVUZoT+MW5jFpZ4lMy48MO3gKZi+ijN6/H+nJCLdVBwKsWzcKOOmDIXJXWUIZKkpqiu5zh0iSclUwfaqaBfm2mPtiCJflCKzZsqAZ4YOtafPXB2/DvfvdXcfPaKoYsTbKmZo+cZnIJgUxYcRp9ZnoDhgw4yWwyv02vsV7QeXOdz+qV8lVVGaUlRtWPWd1Wcicgk9gGjHHYQaUzh5tXAY/dug6P3rINt60aRp0av0zBojZmx2ecUizXAJkmJC1uRivNuCzMM/GIuEoT1Mn3dwmgCgFZLwdI5ueA2QlYQwH8kTrmZhtmidenDrXwZ7sm8E2Gt460MU0sa1J3i4C1PQm5YtCLqOetDIjEbD6bbts8inE/Q5BH0BKuRnqqC+CCBiIjm5kwrgQJdBFlBwtSPS5SdcekRKb0HR8ewu07tuJzH7kHv/rgdpTzGKMV3/S3zqKI3yDTjc+T4eSnlRwBcqn262vaPnBFxh+Wz8qNckBdVbrMkg6D6uBTaQWf7ypRu/pdlPIO1lWBu3eM49MP3I2Hb7/VVGY152fQajX4PCO6FkhApSmsSjk78IvKOVocyqhMY8LDyFQKNuebmJJ/S4ukQuBajdOIpo4YQeYMj2HaHcMvTgF/9/JhPPnTl/D6/pNoaRAT/1LyYajKRbogAq2MHfOKAS01m/+Hf/8HmJuZx1yzhRmafQ31EJKmIsMLCS5NkjzpmJpnsXfR+YC3mJ5EMcuTHp9MSuopTfVqLp7BwfmpDw7aQkYxEWDyXzUtqYBmeeproyaJEOrrZWmmDmpeO4pRS0LcPF7BF+7bhl+9bwPu3xlgw5CmAqDJr5IWCBmMv85gzLHeOUM6vgAtALk4MJql/5iecnlgemBxX+dlKub0pVUzLSthhH7c2rKFcWZH2mmDLh4aoLnOtLvJBDx9G/fVVGLmyaIWN3km4aTpeWQbyn9cqdSXQdqSR0znE/6bY5Pu/g3cZ4aYdngemVFJPFeYx+rkUZzvhhZOzTs4PNdFi4I2qHioVgLyE+Oh0I4ohG2rKFf51w5DTuUy2bSwaybDK3MpxpKqqddKLE2MID4oFg+/aLgkg15pUvqKNF7U5/0//7s/oDAtGQZU393TlJq5pCs1i56XRFUDOlmXgczLAhEDi3IBWJkhbS0dLe1osNEvxAuQnpf20i6Z1+Zz6k4oXyflH9/IeBiHzDK1B9ISKDEd6wmMOzcN41fu2IJfuXMT7txSpcaTQSt/h+ZxP+4ecLUv825xUOFdknSP0Ni7VZ+kb14Abi+IAWMJrZzpz7qo2CFGKXjUJ7ocVBGS8ebCFHNaM8lRxRkfYGrVnimHxKzCx282Jg9Tp/ZTy+TzyiSTHSpaBQl4bc8l5Z1UJfPPYJt8JcAai44xFAAqbtHKkZqB9Ph8A3ONFvmMZjeVQdn1UZFmpzB3LfIeeUHdLB3mT8brk/R5d03HeHE2RDWs8TpNeXWP1GvNBIKXIPMhK5mUwCKRFwXvv/03f4ChkQq8yhC6BMn07DylHJmUwNEIGuPuiqFMrTOJ51VppC6ApjqfQRUyAl5RM3hpUty1ah1xHFLARtArZIZmlLCxVhaU2U4Gd90yqh1q/3YTGyop7r9+DF94eCcevWcrto34qPF1vunLWuO7z8dJS2lZ4F0mSRy4TL1LCGteaJn2EklDNBdHx0vMsgq67WnMzM9i3llNVcO84vtd+YZ8Jg2bpmY/IKPKws+jlFpm5YL3XVMvq6Xp+rlu9vSv4vJoJldoJscd4w/PTLbRns/hOzWMDVXN6C7HUquHlASFXtJFSvCqwurlmTaen23DD0vI3AQJ+YM3855l5N/yWOUKknKryLGLgvdf/9P/jko2wNhogFXja4zZOjkxgcZcE7GmCfTozGm1erWkU3VoFkV1HZTpk8uH1DsIRpdglrKSNloOWYxLq7IbMUwJnKpWWdJZWl+mEpWS06aZPB/j+tVVfPKODfj8/ZvxyVvHsLmk+ZPU8YL3U3KL8mXO4nE5wWvanpM2BRnNZpm8zI80JoBp5qtL4HDZwZhP4RSFePWUj9LIMPEdIW3PUz6FGBsbQkTt26XAVG/sSn2YWVxU1Fz1tCibF4NX1D9OHDpFXsMYu522S8VhYXo6R7NBa8z2Ua95KFdoLpOxVA9hh21VXGOGFvKrjRi7WjHKNJszN0NYUi042TWWbXS1k3KnyLGLgve//71/g1A9j/g3PuRi45o11H5q8phHs02/Q1XvZMbA7WlaYURaoi++XE2VqgyjySsfmKDuv/pCQY+m9HlNDDSfi8D3yDdkCQQUEF4Yo061f9+2Oj794A34zP3X4e5tIxhlgVvdeYKfT7OAjUWgSBlFYZJdOlw+YhokwCR0KHC0yLVG3Ni0HJQjNTLVOubpqpE65tMqkvlT1MQNJPrWch2dnEJL1azMX58aRYMCerlyDRC/S3lt8twc9c8WxHLOZK0Y064CJxiFFwyT36g85udw9PQJtOMurAo1cK1Ol0QdOTKyio+ZZo5XpzvYRV95KB1m9ueItMI/lYHfE+ZXNymXipy6KHj/8A9+n4xDc4Mf7hF4QxUb46OrTJ1Ss9VFo9GmtkipVdXaxijJeKrtNRVCqrSg82I6IcgfibrMSI3n0d+ZJJwbdH/J02LNYlQGOUCqbDJrCc2hzkLdWq/inuuobT+5GffcvB471tKU8uX38J1m7Ck1NEGfU3BIay9X3l5e8BZfpLbIrsArX5ZALPrnMon0xco0DcfKLjbQDHTCGbTDDho0XSKrzEdp0fhkXM83M3hqCRLVZF8TtCibi1wqaPHWVsVdWqK7wG+mALR8liVN4Ebcwqn5GcxGWrRdwtnHeMlDncJaPf5mWjl2TbTxEp3fejzEfLaoxU0/wcIauxT1E7FiSQksEnlR8P7B7/++AYFMXjWu07PA6LCLcnmUVynRyGxxt4kWgSw/xadZ63kBr9hFjbN5By/I902Ygcxco+F49oKB112f4KXAUB9ZPa/J4JzOHIazLm5aVcdDN23FY/fuxP131bF+JECV4CYOmEaC1tbCZS6Bq9Gfqt5StdGlKyouL3BFjC+jn06wxtQM0rcSTC6FUSFO9G0ZSjTxd1QzDJdsahaahl3glCpHLX0HBSEtFpffrxgSCbFrgQwPFHxgDvtbyWttGRyWpZ9WEIuPKLDNGkoMMX2mDnlpLrJxsmmhRfcpyJg/6ide8tEMHeyZTej3djFM8MplE+gVuaMKzkuQSUs/QSuSlLgigRcF77/6vd+j4iOzGYYjq0URt54B8NjwKGq0TOP2HE5MtUztsgasq3nITBaqTKdWlpY2hcV4ilrFi5Nuj2Qu8YUaP+smEYKwiTFEuH3dMD512zZ8+h4C96ZhDPldUEeRsen3aOA2HzZ9a5le+Tg5gctEMJ5SITQuEt4XEt9RbuibBFVR0cGD72NeKeWmM781h43jo/BpLndpKs83u5gP6f9S21I6Mn3q0EHt3WPuq5qU18W/Dhb9inofyI1Ft8HOqE01dtyKeEKtBuQLWWJuGWEWYLqR49T0PGamJ9DtxvBqo+jyubc6Lva2U4KXZjNvj2k2q+rUUf/oS5BJy5kErUBS4ooEXhS8//hf/RvTdqb+umry0TjKuZkplP0A60Zo7q0aQp0qb6pbplWbmC6AYUyPlxrCDKaWH8wXqS3Oky8ns9acuXDIpG07TaFQ61+hTpN8feDi3q1r8cUHbsFnqHFv21yjmRQhbDZpYtMnVP9XMoXmS1YQgM1cVSwsdYkrmquuABlhwo0+jOyjSe40aZuEjdKkGnSikkknc5Evx0eHsWX1CEZo6k8cegfd1hyCShkZ3YhOTNfk/RIyHyQtBq/Znv+bUmrbWIu20wBxNbCXeZnLJaLpS87gg2qudNFut/HWqdOYnJox82e1khIOJg7eTlwM54FpA+4wHvUfd0wb+sWpn66VS0pckcCLgvff/Pf/3rTdqhOGqURKE9TITGrO0PIegR1j/Rqa0KM3oN1NMDXbQKMdmr7CGqWj3kcCbKF+9cpiezFSM1NeZsGEXePnbahVaSZfhy89fDceuHEdtlBoBOk8Ad4gcNcZk9j0d6UPadG3cWgum2FkKSFitLEA0ov8gya18ch0z0MKk5gmsoWAgJXvr1qCiJc73LZlzrklCisLozQ31tc8rB8uoxO2cbLRwpyW4tSoJyMMr24qLJ3eAWkJTpRl5Jfco0VSaiGzNYMGBXHqwU4CWLFDP1g2S06FkCOtEMjMm4mp05htzmG2EeKdToL9fHworZmVLUJPffNpDy6nbzMTtLJlpBJXJPASFVZ/YExXLaZlBCZ/bFPzW0TgkhHLQQkjwzbqgTRdRIbrYK7VQqglMo2Jw0AYy3dTpZf8PqOF6JFqyhNp2pwS1NbsCWCgdHVmTmBLPcBD29fhsdu34pO3bsZd2+pYW1d/ZiaapqYWnNNIIMmH/vfIlzSB7zBaStf64UqQSZvSou+W5UKQygqQe6H09oJGzyhvnCw1I6FqvGdVtYYazWhVeLU6HYYmXPVqozDSWCWfkXuSUoR/qlko1AtBTgRdBDuP+1lywXBFaZEMl1w3eNUBE2b2lSn9myS4Mh4bJUA/hHyjdnObJjRVCs9LqZC/eL1FH6VpVdBxVNFXRkC+iuluWaq05L6JQy8p/out2VlE5ppOrtRwZi//8UXA++9+/98a4Br+51eaLn/mSe0XzCi4DPk5RqseKiWPZmuK6Tn6ITRpZTM6nkaGqIcVpak0OB9nVhfxyKY0nTqUser4wUOCfKffwgM7N+CTd15nhvDdvKmK0VLReUGVF2YAoppPZHb2AKLPKZqiCvCarzMJZ7gS1Msnfhw3AqvUfy9BOs1g3HNtze0UYlkxFYzHi7VSgFqNwolaOo47aLTmMdVsoRrUeX/JtEJJ+Dm+2tZj5i8jkjmpgeta0eBSxNt78PjgqWeJnZf0GQr6UV8CBXO/BBU/muavad2Q4FImqAnSMI4PTZ+TeBV4pSqGNOjElopQu3AxY4lx45i3BXsU/GLeY96prdlhWLnUr9QTLQavvuRdk0xhP2phY93DvTvW4tG7duLjt23B9asqqKoHjGabFGJpSmtpz0IUqFaYWkKr4pvVA9UyLF+wiaFaik995AY8cu91uPPG9di6PsCwKQea0Vp+k+a6ClKzMhqQXuWkLygWFI/4VREVDfPMpa8XJBinpXHjRrkN63H3tlWwu+1icAVv1yyMXWklrwafDKsBIqW8hbrVNvF+GKioS/gQkjFXFqGYtETz/r6aii5BAq/WJFIj+Ug5wNqxGjauX4+A4NKgBlUkpE3136V21QDXQONnZd4RwKqRnqeG7s5R02TYsq6Ke25eh3/6qVtx2/a12Djmok6F5ZOpNQhCcyE7FAAa0K5O+5ov2KShB+KrEcxmiKHMQdWq0m/PtFo5/TxpZJ95Vqu6GB+qYKhSRtfyMTfdxHyLfqAmD6iq40KKhAKSOgcBBZvFEPXy5aK00rNKvNlnUMOs/SRL0C9Ovq4V56Q5NWNnUC7DL6lSi9Ycr5mx53pgieZd6ZmwlBanOH/6IvM2/wF9Xn3gpYJR2iF9D2aOGG645GDDmlUEHc2bNCJGZQ5Ss8TUCi2Ctd2CSz8uiELUaPJtHfXxwPVr8en7r8NnH7ged66mmRxY9OAyuPRvbZlFxsRRrbI67ns0GR36gGdr38X7Vw8xD+mvGpfEHPIb+E+ngH+acNdGlUheVS9jy+Y1aExOoUOwaiEzLWiWdeRKEOg+vWCa3GHEfPbVgHYJuiqySsDsbUlFkov9fvr780ibs8y7AXh7JPBemuQHF0uamHZWahFVpAxXHIxRY6ylzbum7mMV+Wl1rYRVnoW1DFtqAW5ZN4b7t6/DwzeuxSM3rcN928dxE2+sEayqeSVUGR9/ZB/1mgkMW7NQ1GZs8Ew6I0SuUpLiJYMVS8KoHsGGWVWA/p6mf2HOmrmxxsiPdd9WvxkCOMJcs4MoJEPSJdGgBc0VZVwT1SFciq6G7BLwuDHWXXGG1APvAvEaLbEPC3jN9/ezYBF4ra1bt56VM6+//npv78KkbA2ZB4KVQyaU9FddvmbETwjoqWaIY1NzODYxi7kowPx827QJe26A1cPDWEcze6xOxqznGCrnKBGxaaQ+0b32WWUw87wYYkjA6kU90KqC9arM/8XEb6NXYDpzxPw2HTrMVS/l96qW1ZC2KX3+FmasAC+d6OBHb0zhx2/P4Y3TNGZMV0paJBSKmh4vN/UCFyfJhnNh8IGRtOWlSKAj2EwFDZWBmQTBhN6+Lugedc/VCDc9QrCqr/PQ6Biq5C0xS6RhpeIlfa8mYeCO9heDtwf9q4NU4dFLbv7/+EixQ1oC3n379vX2Lkx6QL35ekYtHOXiotpOVfurWSciL6ZkPFp8iBPqF55Xc66C9IQt09o8x6x0ar2M7aFTu/0g6qXfAPlqJ+YL5FUwH/oj1rSRIDQc2csG0xOrPQ1USpjJXbx2OsKPX5/GE69MYd9EhoZfBaoMLAS72+ADF6erAbw2gVeQ+kep0BXOBq8ZajkAb1+fvTvS58vD0gJwhhEVi0uTxfXRpmnXarehOZVrAX03aoVV1QwbxiysGc1Rq1BL5G0kSZOZz+xX7bM/RLeW5iP9vCiP0ZXPrMIjUKVp1dieUlVFyTVSq8rvyb2Egk0MWuRn4Sr0DvjdGskWaThkZTXCdhdDdgcPbCzhK/esx+dvGsOtYw5WuymsuAV0Ga4BEjb1+Quhz7D9E6LF+x8ikvAyAmwRvSfwisustE0/V0MHQwJRHcdTdIk0uzIErzYCq0TYUgraLl9IlCdoE34NauwWEo/mINVvWiojod+mccIpQavubLZvUQ4wWa6GF4QIsyaSnFrF6cILJCkuTed+5IojcaUXU0lQs5q+2CoYc8UQLWrmU44mt+qMb1dHya8JnGgKm4IIX3pwJ37toduwc3UZgVkn+NoAr6gP2AFdmt4jeEkagqdKEnXcsIvB9+qZpRlcNLdT0URuGaY0bb7qupi6pt+xgm160MgckmSlMKD5ow4gWqRLf6YCh38ufWjb1L8qULsvg1Z+pYQMOE9fZ37lCZgkqzQY1GQUcNeXuUibQ/ycZyW6gSVUXAfbRoFHbyzjyzfW8KtrEuzwu8i8EWT0U5ysg6odokRfRhVZmp9alTgerRk/obNj7EcFRnoROnshuF826HXF3xIyH1cEbfqeg1kgztzPwH1zUeajup+ayip1xGBmGeZSV1lmnbrZMs/MVpabrvF2836FIrYiLD6/woOhfrktovcIXkVE8JpAIBLAngDMK2JEBUWsF5sCULMIfTYn9+HlAdzcM+A1lRPSKLYyXE1AgruCfgVe14DX6XWjLDzsa4FUCBJvhZjilxflokxjUP7pi0vMP9ctNDOUB3aZeeWhzHt2jAOf2DmML9wwho+slRMTmQnbJEA1F5ZGeGl0mLqwabYTMbRLK0evUej/niEVVj8Uh5cvFLAtAv94boExF96pYG7tPdZ/overCwWqi8A79HnGH+YFCWzlodnXee4pyn4sJg7ROeeutrCYzGe+X6QMlXRcThjQUjJjgV0KL4fCjsJNYOxPelciwjesruGOm7bj4Zs24P7KNG4aD+B7GtzgIuySual5rLhJ8IaI3ZJZP3iBEc5lbOFhQFcVve+oOR9Qzw0r38y9MqR8MUMzWUymL7gJzKtcM2QCw1S429aV8Jm7NuP/+qs3YUP3OCq0ZFAe4lUf8cwUhsoOgsAzHdvCDjUwQaqgKb76++cLA1r5NFB5K5yEo6LxhKDtCzmZirFpf4NHE3JNkOHB9R7+5afvxv1rPazO5+F4GYLx1WjGFlK1nSsWauDFJuvFwoBWPg3Au4LJuIHEnOYvNouVLQCYJjERZialN2OGUwx5wH2bavgH927Cr944hG2VmGYz/T+aymrq1Bp9vqexWSYWQ/39c8OArg4agHcF0wKgVPNqanJ0xCJTjYxxObgxPZEyxKmFcT/GJ3fW8JU71+BTO4ewNkjhpGZFJVTzGOU8NJp8OWFAK5/ed/D2G5cvFQa0lKRkNa9BMReCmj9UXEVQbax6sinrNM9V1zQ6JRh1O3hkaxm/SQ38qR01rM5mMU7NXMpSZF3NCcUyWUYY0Mqn9x28A/rlaMEPZUnJ91WX05BmdEyEaUqdLk1jNSZ5gYtUwwIJvCqhfMdoit/7xHb88wc3YnU8haQdwi6Nmq7T5waN6V98PADv1UHvO3iL9rdLhwEtJU3zkqmTOEGqYKxl12LQYA2X2wC2V3TCMEuMWj4BXOV5lxo4xA3uJL5wQx2//sidWL9hM+ZajG8RQM/Sstr2w4CuChpo3hVMRrCpopiAknwTrnS4OGhCdy3q7VuFb6sOH2om0qwlpaCGHavqeHRnBV+71cbHN1NHd1TJ5TM4xh+2kxafafIpdbGMCXwfnl82sfRDn3oy5OzAn0sF/ajiTcF0sNB//9hc1/nivv5x/70LlofO98ncw5/eVrPjmO3CeQa+x4z7XXTKCENaKlrpw0zu0A+8eD5X7oMIyyPdq4Xpzr5/AN6VTORgzZ/d5+Q+mFRo/WBATGSr75mjzoViiFzLZpZpS9dQoTl94yoXn7+ZfvAdw7hpbd3Mh+3T/9XIHEeTtJHEHIrPJTObYZ7c779PwbCNdgrEvKugX/0IPGeBlscGtP1jhoV3al/nelQAsxdEZp8/5ngxcIvtwv2GzoDFBKXjrOPeox9wKFJ26aCZUiWhzPJCi0hlNKCrnVi2fWbo70ubSMvodLVcwoa1a/HQzVvxew9vwh2lDmqdeTixTZyP0ufVahhD8HIfbruDvDG3AKI+LeB2QJeNTJnp51KBVFhhxX6fBuC9BkgFW6xMweKUfU0zWr5snCTF0iEkn9d3jPj47a0Z/sVHtuAT29cQrjaS6RCIqrD8MTNwxApTglpjPRcBlkH75ngxnc1LA3q/SGMDWFbqXLeYBuC9ZoglK8Ra6krJgtZE765t1jzWqo9aEN1PuxjFDD5+0xp86cHr8Mj1YxgrRfSDp5C35tGNMyRawrU8tGCyLoBWAO4BeUAfLOWaGinzUdIqmItoAN5rggRc1ThnhbkstBHABsQKOiTq5D6DPnDZT3DH5gBfuGsNfvXWIWyt0kxuHQfSDkLHR9vRKCVSD7ALAO5vByC+bHSuhXy+kGUUxFmA+jmTDA7Ae61Qr6DTLDcTsPUnuddQQC1GraGCVMVIS1V0ky7WlHM8sr2EL985jk9fH2DncBe+qymJYnGLAWmfOc4CcG9/QB8cqULNsxysqxaVi30agPcaIo2HVgWuAW+eIk5Tgpn+K0tfY6e1WMi8VTIDFXyE2FiO8SA18Ffu24zP3rEO16+Spm4RvG0D0sVAXWxGDwD8wVLOMgzcFJvHeid6NADvtUJEk60J6tWBg5pWGjihn5umvRklCOQkiun/xqhWayirkwd94To17f3b1+KrD92MX7lhDA+szrGufGYywb7WXbw/APDlIcnDs5qsLhSsEJVSB9vWFM/1aQDea4A06khzObOcDalm0iE4fd9DuRygFARwPRclz8FwyYOjxn7NgBLUEHgVlGmSXTdWx2O3bKYJPYqbR1S7OQDnSiELEcsuxFq16C2iAXivATKtQ04BNtPrisHjkc8jz0xTxDMMFvcDntMcWUXvDha/Q01NLA/x3O3jJXzhptX49dvX4M61Afy4aVZ+TDToQbN5xB2eaxkhAK9adAQppvdkYAQMxZxV6vVEU53aXguCWdT8unwhiWBOGTXUP1p008J5njWXzlxTl1BdlLDSM3wlrQy+nx+nUVhmJNZCfBcLfK53/+UIiz+2OKf4++HMNWiZ16yYy0xL+mjgSWx5CJ0yYrdGm4j7UYItQYIHR2JsPget5xwO6GokmclaClR8LbZQoQqb0p8FY58J+jPrIROxmaVJ6niaTOUSZKt8C7esreET16/CZ64fwm2rPAy78pdTAwwtXq7J4c04YaPm+XCfGQ3Tijn5Q5PdABiauaN/7yLSI72NCby8YJLzpw9SPUWj0WxN5L0Hi77w6oRSgFfnDUhMTynlQ/H1BZD43csKuvfyBH252faPF4XF5zOCM4OWZ7XhM0/9PDFjtPUh6tIes3AyAnv7UIAHVwdYr89aREz1gD6stHhASH9f27VVl+bzMH77gW34yIYAw3kTUbeLvDyKOBhGq9WE1zmNUj4v3JAKmPWD+dV5NVeZQRS/LJvJ9yu2VwUxmSa9veRKhPb/DPWua4majJZPmsRwkibqaGIEDVTjGdjtKQI5wlC9gg1rx7BxzTBGa8XjfRqA90NOAuti4IpGAuD+dQ5+997V+K2713Dfp1kdIYxBk05LtDooZTSfU4JXHNRXneqkLPUnsJk/aQ6GHs8uhxSL0d69sBgEZv8qoP7Xi5Sl/TxenNe67lsJ9W6IOGqiFTF/pYm9Cq0oHzUnxpZyF3ePJ7hljYd1Qw4q5skzNADvh5T6TNSnJQzG/yE7wid3VPGb967HozePY4y+FzSgXz19/BJBrFkCyKTiIpriZ0IRp2b4MP2r1X61XOoDtdiQznmWhwbcVw0VeWmyW2EROXELQTxrFknD2FZM19bjcDqCY40UVmcW9w438Y9vTPDx9TkqzNNzJz4egHdAS4Cb2R7NXqrfKMSmaoZP7azjK3eupS88gpFqAZx2Xqam0ETwRYWU0bHCLcFrVp/XQZ9b3xXWztxcaOBiazTZYjW8gmkxTot091JttkX6zXVaMLlXMovzNSIL82216GUYq/i4dUMdD23w8cBwG+u9ltHSrpmS/gwNwPshJqNhzyGd07CEOQbVdmoe2I31HB/bWsaXb1+NT+wcw/oawZ276Mb0aemvqUZZc0Q7BJcYSkMUVXtaTOsrIL87NisYvWDy3tHC5uog5qvyVtnLdBvRsyCAisu6HtklerlVdDU9SmMSY+EEbq218Ritnc/fvhF3bxnDsM1rSUQDR+6IwhkagPdDTos1bj9oTqyOhHxZprFDFHewltL/sescfO3+tfjo9lGsLztwk4SA1RIrmRnYbwb3c181zMV6EFoGR01Ty2czg1HD6Iupf8TtAqhXLjELi7ws9KtxG7QIfd99MFd4vR2D2jZFKeniBm8aj41N43e2RfhHt/r4/E4Xm0ZqtG5qiJK+zj07HwfgHdAScgnISqpFXMl0Ds3j1EbcbWOcrPToJuC3qYE/f/0Qbhn3UHE9lJzeouhkUCsmmzFoaU0tgG1TWSybyQTM84HTnNI1c7TiScAsrA4lmX/8JmaN2epPmNb1WtrEDnsSn97q4l89tB7/huGrO0u4oxJC0+ab9vrKMOAPI8001cLZbUUD8A5oCfl2hGFnFu3GBFrEYlYZhR1UqSZmUGvP4OH1Ln3g9fj4DetQLfkoewE8alittCDQZlGCNE6QC8Sme+ZlQN1VAtyCzmhdCSMjk3ogVhDp6sPbh/DvP7Eev3PHMB7aVMKOEY/+rouSS6uGYHdoAtnMR0ft7JZzjtE8AO+AzkeaGsepIPBKcGnyyvS13RIyt8xrNoZLOW5b6+GLNw/jn9w+jrvqGUYyVajwuaCEJMiR2h3k9NccW/28Ahi7TyEr/GGzCJo0kxiTml6dRnLVVJO3TauT4XjD9QX1sKAdc12s2+9cYS4uCr1OEObZhXguEsxzi3tlKW3q8cTkytwlbNRv3HK4b9Oi0FKYnouYgOoSUZrNM9M9NDMcKybYugz0Ux0fCbVmx6kjYR7UKd1uq3bwmxua+Pc3NfHPb4jx8U02bl/lYF3FQZVxusx7aW5mjHmvPtbic462TM9iGoB3QOchVVQNo1QaQkBGkk+rtZLyUs0M1hfQhoIUd6/38A/uGMFndo7i+rEKyvKPCSjbI2BLAXLXMguIZ8aMlBFIU9KAq3iL2RjwMAi48o17gBJAF0Lvr9g783smiLg1wOvtn3Xt4mRiV68sCQOzz29g0PkFfJMEn4Tv0J9WrHDywufXxPdEFxLXRsg86PJ+dSvNkxilPMIaP8YNQxkeWmfjCzt8/PaNPr52g4uH12ZY5aeoUc16qqVn/hiI6p38U/t4SiGn+bmZ+8YtWUwD8A7okmQ0QY/6+9oGxPj6cRe/8tFt+NhdW7Gl7sJvhqh0KxgO1hGLHqJsnhpq3ix25vkOn1NzSEqzWuOGyaXqlO1IWMifO/OeD5YEmUK7OgzGKGBSzEQGTJdglVK7JqlHTVxBFubwOh3U0xbGaGEMe7QwPAcNt4LT3jAmrBraiY0gnMWN2UF8bugg/tmOGfzLuxz82p1j2LJxDI3aGObsGgXDGXP6QuFCNADvgJZFAuti4Ioci1rD6WJDDXj0riF8/r5tuHvDGPz5GOlUZkYs8Qbe2EGn00JMTSQT2agWxuFQS3keQS0tp7m2eP3KEE1UKyFQNYVBRqBqKCV9dgLHlf9J85eppRXi0PQlmOMMUVfzgzm0LOhOUPjEFERhu4l4fhJeNIsd9QS/cn0d//zhjfjXH1mFr+7IcXdlGqPx9EK1Uy5lfw5QzxcuRNbWrVvPurpv377e3oAGVFCfgRYzkvZtjRqKIzSdBC2a1EfmXDy7N8QTPz+B1060MFfP0ap1iY0IaLrUbDL+aIrK+pM7R82mRdmREjCMJ9UFmp5GNOhVOjY388AwsjpbMgZTdStfWfFkqIyMY2R8DcrVOmKec2i2J6aiTD7omTRfkArbXPLELLSf8LtEWozcY1wyqWUt2EkXLr8lo4ZN6T6ENKG7YYKkMwsnncGGOrBhvIybGe4YK2Mzw/YRC6NuYlaxMJHzmdDyTRu6dLqGJlyKiprrQmDefPPNZisaaN4BLZv62nchaHL3rIYy96uYwtbheXz0Fhe//tFNeIB+8CgI7iaBy/+SRzOSwNR6w4aIPNVGp2paIjCkjdS540qQasM1QkkTsOtPySiSUgiMQhPHBFyCrpuixW3b1AADdd/C1rqHj6wu44tbqvhHO2v43Z0BPr3Zwu1jvE5XP7VctGgiR+4wQV8xE+RX03n6w+2eaX7x0AfuuTQA74AuSedjHnNOp8lBjluDm3ZQwgQB3MQn7nLxhQc30ISuYgPvK9PE9DKapeopJG0tZUimVAVVf7UCRadTV4JkUKhbosCr7p0y5X1floJmJCFo4y5N5BBdprFFTdzNuvBo/m5x5/DQ6gRfvrGKr92xFr9+0xp8atMIbh32sdpPMeykZhJ7GQ/qtUYZRgHgwqKZbcnC6AHzUuFCNADvgJZF52UqcY9x4NSLqkRGTRFgGmv9Fh69HfjyA5vxsc3D2Eh/MmnOI2zMIu5Q2/AJ3w/gl8s0cWk4MioNrM+MiXwlSLXKDkFGTUct6fu+Cao8TwjaKGkT2CE1KBPK6+ME5h3DbXxufRtfuz7Bf3crrY2bPdyx3sVIWeNwHXTUdZT3VlwLdcZT4bc5SeFLh7RYIoda2KksydNLhcU0AO+A3jOpZSYhB7XVGcNeBd/eADepwmpNY43dxWduC/A7D2zEx69fheESASENq77Q1EauS5AEgRnvq2qiRBVFUoFXgNSM5akNmwBWrbIxowk2zQEWp11qYJq5NI03lmLc6zfxletH8HuPbMM/uW89PrnZwQZqYK87S5c2QkIz2VLX0VKFX2XEAuxcc5GkKPNayaG1wfOdJDPtw78MDcA7oPdMuR0j8xuwSg7NShdht0ZwDqPiV2kczmM4n8U9Wxx85v4duPf227Fl40ZUghLSJEWn00WbIQ5pTGaZmSBeNbtXglyasb5Xova1EUcpuqEmqqfGjboEc4RSycXo2BA+ed0Y/uCOUfzWdVXcPQKMCajEn9qxc/q+lku3AE249GU9uQjGj9ZSrMyb3DNbwTmgqKo7IcrMP7kMlwoXogF4B/RLkmUGIqhrpDHqaCoSzbSDqVVTYDiwcd+GEv7p7WV8aYeH24YTjKJDBzAyla9wPaHH6N7ETFOrtQ59anUG6iuNXpI5W8xNVVjppuWVWtLSSgK2Jy/SAIUwohCwEPPFkRbmYqLkw+b0rVVplNqEDeNNCFLVHjv0Z8sWQ940PmyWttFMcswnHhKnjLUjNXxsSx3/eCfw73bM4mtbOrhvnY8dNWCICdFwgYzmR2pRryq9SpM6ccgPoL9sckT/vWD6ofCPqeY+71UTWc8cvli4EA2aigb0nkldBxMNQDgPg/U1hrZicvU2evVYC4/vm8FTB9p4bSrDDAFuenpY1L5JU9WyfILI6NdcqUmIpisEatO2RL+RgoIszYjVcSKhSeugUquiOjyMcn0IdqlELaeKIYHcNm2zSUyjnOkwtbd6lPFq+ReJDE8aP+vCilsI1Wbr1VCvlbFx2MfN48C9YyHuGWlie8D00UeNQZV7CdJ71Ib9ftBNN93U2xuAd0C/BJm1blV7fAHwLph8GrBPAKelOohdPP7qNL6/6wBePjyBkNoQVfrJqn1NCc640JYav9qfiYMuqJqCDWB5kiqP133ual4exuyXqqgTuLX6MPcrPFV0M8wclz459zs0ZZMWAjsjWAlZJ0CLGn4+K6HLraaiWWc3sa5m4fpRBzeusrGTNvHGOs3ligOfQNQnekxIyWj4i1O/ief9oAF4B3RZSOAUuC4G3uIemZfUwKUy2rz21gTwk73H8cSut/HC4Wk0HNmhq0yHDacxQ32Z0gzXesF6Xs0s9EVpQieafocmKjRA3WZMCRFNf7VUGcJQfQS18hA8mbA8n9GvVrts5mUoeS59bQeeo/WcgA792vmQvq3MczfAzvESHloPbC2rFrmLm4cirNYCbFpSk+ZzxxpGg+nWMl9DsgYuQZcyd38ZGoB3QJeF+uC8lOYVu6tiVTNQav5nzU18ZD7C8/un8J1dB/H8yQ4mYmpgamH5zk4ewcvjhWlQtfpDRH9SfmhuaoUJrFhzfVC7lauoDY1S846iWq7wWQdpRNDGKbVsgoCKOAQ1Lf3jVpQjpq/tZSHBmWHn6hK2jldx+5oy7lplYYju+rifYNiJ+E3S6kq/g8wumTRLl7q9b7oYvV/AFV0UvHv27Hnf7PUBfTioD9oF8KrCiNuU5qs6a7jUgF0C6nDbwk8PNfD47uP4xcEpTLTId6UxPkA9S/D4BLDFfU2NGlFlqmLIoqbUvFl51Kb568GrDqEyMkJ/dwSlcpk+LbUe79UIHJeSwHIsNIhDygpTQVajJt5czw1Y711n4YYxC9urFtb6hKYqzzSpngDLXyOY+C7TuGO6UDJ90vxXkBaDd4lhPjFBm2ZAA/ol6HyaR6fKga9hsLCSLspZG1uGXXzs5nE8dscWPLh1CGvrek6BZrKaV6wSImrbhBo5lb+bxrCTohmmnDgoWwFKbomWc4lAdhFRU3aprWOLmtdJ0CHeZkICkdhbUwLuWuvgs9eV8Vu3DeGrt9bw2BYPd4/GWOtpYTWtz0SEy8/mnoRNwkSntirUBFgptKXfdSXJGRkZ+Q+9fUP33XcfduzY0Tsa0IDeGwnACxrYmJ/FgHLThKKeRkSUQ01XCVwM10tYVfFNx4jDUy0q3g59Vo1AUjUXwSeNp1orK6NGpjmcacnSEnz6usHoKPyaapl909EjDjvIwxZx2OFrVG0VYPtogI9uKePzOwN84ToXn9ho48ZagiGfMI0TJDk1Ov1uywxLFESZNm7VBCVNrp5VCdOgJqf3pxpq+fTHf/zHvb3zgLdM0+Oxxx7rHQ1oQBcnY1pKrZ5Di01nNc+YAesEYNGv2Yft0cSltlSbZ43aeNuYj9GyQ8y1UMk7iMIuOknK5wkjx2dwTSeOgMENyrCqw3CHFUZgV+gLS1gQ8A7BO0zwjXs2bl5Vwae21/CprT4e3UIzeTTBtqCFIFe1GXUrBUDi1RnKSGUu20yP0piGvEwtbPQvjeae2a+vLOB95WgxeJf4vKKnnnoK69at6x0NaEAXpj5IzwWwzveDReBKhyZqx7Woz6jhTIcFPpqnXYKFgabubOzg1WkLv9h3FD96Ywp7JlJMxGWqQK3S4MK3E5QZ/HIF7tAaZLTBE2pvadycGtRLQqxycvqxdWwncO+l+3z/yCRGqgFqJdU266VMnNLKdCQM3R4q5fLqkhmcQAtAM2UY/1knaTXI9ObRgna+UrTY512ieUWNRmOgfQe0LBJoz+/jFufM9WKP/0KIw00BCp1Xe676/wrNbilAeaSKGs3o+lDZhEqF/qZP01lT6hCoEf3bKKghKmlWy4T+cxtD6GBLNcZtq1z6zhV8ZEcVd24BbhmnRi/HppnI0XpJen/PICY8DSDVdqQqqmIaGqVJaVPPLfV+kl2gs7IYek1iJo4rR5fUvKI/+qM/wte+9rXe0YAG9N7pjAYWEMh0va1I5/vblP5syJDBx0yc4/BMiLdOd/DmRIhDDWAq9tHMPMQ0u3OCy0s6GEcXWysZrh/3ccOaEravLmO8aqFkF6B0EgGweLfZFm8jGPtNWYSxZsdwrmwt8nLpok1Fi2kA4AFdDloueG36q+gSpfRp4ZR40qNZa2MmAWbpgs5zq6loO9SYsnYDhlEqwnHibhXd4mHhz+UV1RynsTG1paVtvYPvlCncB69qlflSE6Rl5e9eDbRs8A5oQANaqQT8/wE4Hwhyg6bI6wAAAABJRU5ErkJggg==;" vertex="1" parent="1">
          <mxGeometry x="110.5" y="440" width="59.5" height="60" as="geometry" />
        </mxCell>
        <mxCell id="vPUxcMvmtv4Ck2IGcJZG-11" value="" style="verticalLabelPosition=bottom;html=1;verticalAlign=top;align=center;strokeColor=none;fillColor=#00BEF2;shape=mxgraph.azure.github_code;pointerEvents=1;" vertex="1" parent="1">
          <mxGeometry x="115.25" y="310" width="50" height="50" as="geometry" />
        </mxCell>
        <mxCell id="vPUxcMvmtv4Ck2IGcJZG-12" style="edgeStyle=orthogonalEdgeStyle;rounded=0;orthogonalLoop=1;jettySize=auto;html=1;entryX=0.5;entryY=1;entryDx=0;entryDy=0;entryPerimeter=0;strokeWidth=2;flowAnimation=1;" edge="1" parent="1" source="vPUxcMvmtv4Ck2IGcJZG-10" target="vPUxcMvmtv4Ck2IGcJZG-11">
          <mxGeometry relative="1" as="geometry" />
        </mxCell>
        <mxCell id="vPUxcMvmtv4Ck2IGcJZG-13" value="AWS Account" style="points=[[0,0],[0.25,0],[0.5,0],[0.75,0],[1,0],[1,0.25],[1,0.5],[1,0.75],[1,1],[0.75,1],[0.5,1],[0.25,1],[0,1],[0,0.75],[0,0.5],[0,0.25]];outlineConnect=0;gradientColor=none;html=1;whiteSpace=wrap;fontSize=12;fontStyle=0;container=1;pointerEvents=0;collapsible=0;recursiveResize=0;shape=mxgraph.aws4.group;grIcon=mxgraph.aws4.group_account;strokeColor=#CD2264;fillColor=none;verticalAlign=top;align=left;spacingLeft=30;fontColor=#CD2264;dashed=0;strokeWidth=2;" vertex="1" parent="1">
          <mxGeometry x="520" y="425" width="200" height="200" as="geometry" />
        </mxCell>
        <mxCell id="vPUxcMvmtv4Ck2IGcJZG-15" style="edgeStyle=orthogonalEdgeStyle;rounded=0;orthogonalLoop=1;jettySize=auto;html=1;flowAnimation=1;" edge="1" parent="1" source="vPUxcMvmtv4Ck2IGcJZG-20">
          <mxGeometry relative="1" as="geometry">
            <mxPoint x="520" y="470" as="targetPoint" />
            <Array as="points">
              <mxPoint x="520" y="470" />
            </Array>
          </mxGeometry>
        </mxCell>
        <mxCell id="vPUxcMvmtv4Ck2IGcJZG-17" style="edgeStyle=orthogonalEdgeStyle;rounded=0;orthogonalLoop=1;jettySize=auto;html=1;flowAnimation=1;" edge="1" parent="1" source="vPUxcMvmtv4Ck2IGcJZG-14" target="vPUxcMvmtv4Ck2IGcJZG-16">
          <mxGeometry relative="1" as="geometry" />
        </mxCell>
        <mxCell id="vPUxcMvmtv4Ck2IGcJZG-14" value="" style="shape=image;verticalLabelPosition=bottom;labelBackgroundColor=default;verticalAlign=top;aspect=fixed;imageAspect=0;image=data:image/png,iVBORw0KGgoAAAANSUhEUgAAAGMAAABmCAYAAADf9i8mAAAAAXNSR0IArs4c6QAAAARnQU1BAACxjwv8YQUAAAAJcEhZcwAADsMAAA7DAcdvqGQAAB3ZSURBVHhe7Z1r0F5Vdcd33iSQACEJYLgarnJHUKmt2HqpM1oVCwpOp1P7oXZGv3TacTo61hui1rGttk6nnbaOnXbaGadeqVe03i+lWir1BjHcDXKPISEJBEKS7v9l7b3OOU8gJK+VD1nnrP1b+7/W3uc8zzrP+7wxgAuWHXrYrrLfnhA2Z+63J4Dtb8YTyPY34wlk+5vxBLLBF/hph19QVi87qyw/cFWZW7DQ6n6bD9u5a0fZ9NA9Zd3ma8van11ldWhsxsGLDyvPPvaVZdv2LeWOTTeU+7et52IZerXAHM66Cpsqs2xXPR67CjZ7v6n62DvJtHJy/dgwbFcVomAGdzHP4FHrOhHUsD7cK5auKsctP6MsXXxouer2j5Wt2zcwF8ZmvPCE15b1m9eVdRuv1drdbTrjJgYyOaMubDBHMHxzxuWy3WdgPYt9tN+j2zC/+913n8m2Nw/XiSvPLauWnVS+eOsHmAmbw48mfCLWbbyuTuvLqfV4USIlE6qYRE0RNapOVB1iijAm4dKU8z5m9tC62NdyfUXfByfqqSYSzKsIgShJhBxEFJQDZjKvTEerbpR19Zb7flAe3H4/vxayzeE74o5N17PD6rNGUSZK4xOfMpwiatTqoE7RBQPyk4QKTsXsGFjTXJqIU7FqNNee1kiCeRUhECWJkLWeYiVVO2Am88p0tGozz7rftnENv5+zzeHL+v5tP6v9ig6rh+EwUTk9HT0TD0sn6qCLPj2ArdAAUc8ZmR0Da5qzrLlymcM4kz5KNAkg870wUIIUMrUDV7FeM5mYZz3etO1u/qKUbQ6/Ne3Y9UjtlY/aOPauBiAERmY8LYTnvT7mnTxVgAXUEWfKlRvHmAQVYxPlg0PPOV03yNiJTqdwNFI1XUAqH+T18sE50xyD2UPbUX9BGv/Gyj9nqK/uWx1EaXoqmtgfkkavJVUXpDEJl6Cn1vuY2UPrYsSgQlEarsVrh+ZyBR4aUY0wqBTX4rDorBLZXKcwjqxli5kqZFE5rpWxGewqKYvuBXMmPSRiPA1+SnSKtEYFetpiH5GKiYA1zVPSkigN1+K1Q3O5Ag8URElBnkxrH4nOKpHNdVGjIzSm2yhmh0VlV7JNPxmNud89Ew9LU/yUiTXSmQqCCvT0xj4iFRMBa5qzrDkkEYMoz1paE4K9SYlapj1oEbR5J3fgPqjnjA7Tsjazw4KzlG79kzF4ampk6mkDXek60fNwZLRUA2MJmXLlxjEmQcW8rDVxtkeN5hbqkq7R261hHuRI0hqVxzzyU7KMo5aFIg+tKWnt2PzJwKAuq73VNXG3LZN+GkjVxRNJYxIuTTnvY2YPrYt9LddX9H1wop5qIsG8ihCIkkTIQURBOWAm88p0tOpGWVZ7HFs2tQrcZca1/MnQqCZGD2HooKPG3lkcOkUXDKgnAPWckdkxsKa5NBGnYtVorj2tkQTzKkIgShIhaz3FSqp2wEzmlelo1WaeZYepXlGo41269U+G+uWORddSZxvV2aBPD2ArNEDUc0Zmx8Ca5ixrrlzmMM6kjxJNAsh8LwyUIIVM7cBVrNdMJubZMAObZrXXLGvfGXp66uGnJT89VFI+k6cKsIA64ky5cuMYk6BibKJ8cOg5p+sGGTvR6RSORqqmC0jlg7xePjhnmmMwe87RR3vgWiILB8ZmsGdsFrpPIdFPA6m6II1JuAQ9td7HzB5aFyMGFYrScC1eOzSXK/DQiGqEQaW4FodFZ5XI5jqFcWQtW8xUIYvKrrb3jWNlLhiZmxFtqj1z2JR4GlJHB51tVPD8k19TDl1yuKfaD2EQAfaSYLFRoSiNV60xp0yCBPMqQiBKCvJkWvtIdFaJbK6LGh2hMd1GMTssKnMm7xLZ2dY/GWY8LE1hZ4M10pkKggqOPfT08rLT31h+6biLy+KFSykjE0TAJ7w5tO6QRAyiPGtpTQj2JiVqmfagRdDmndyB+6CeMzpMy9rMDgtOs96pRY9m7ZPRnho/VaLn4cjgVIFjCUEY/iLl9FXPLRed+eZyKv9n4gXMT2oZYy+EGMTZHjWaW6hLukbHdpBwNHIkaY3KYx75KVnGUctCkYfWlJl71EwiV5jZ3Ay8gUH30U8HTySdVxIuTblaGVqyJYsOLs9c/cpy4RlvKEcuO6Wt6RT6PjixF9VEgnkVIRAliZCDiIJywEzmlelo1Y2yrPY4tmxqFbhLI0ToQQXx2rK1ZkSjph3FKbpgQHUY9ZxhmNiKJUeVFz7lD8pzT3x1OeSAw7VWy7BStMarDvYGCeZVhECUJELWeoqVVO2Amcwr09GqzTzLDlO9olD7Lj2bzPcQry3bbj4Z9UidZSoa2QsNEPWcYditrV5xTrnojDeVpx/7srJo4QEs5/oBh3EmfZRoEkD2e9G9IQwKmdqBq1ivmUzMs2EGNs1qr4gm5ntp95aMzWAfa6d4jMhTBSiljjhT7txj2NzcwnLWkS8oLz/zreXkw365rZvsQ9YF1pzwPWU6haORqukCUvkgr5cPzpnmGMyec/TRHriW6CoUwXwPk3tLxmagR3oqasRTpDEJl6CntlZY87T5ntqSxcvKBcf/dnnZGa8vqw45yeu1QduHRCLIO0tUimtxWHRWiWyuUxhH1rLFTBWyqOxqe984VuaCARXoNdbK0JNNPhk6RVqjgt5Zzkgq5uO1lUuPLb9x6h+V55zwe+WgRcup+VLeEBsjECUFefra6Z6oIjTDXBc1OkJjuo1idlhU5kzeJbLJ2j24hnOQ4sB288mwOKCCYWdFKube2vErzysXn/2Wct4xL6l/PlnsTZHBxt2blKhrxz1ZIIVM7sB9UM8ZHaZlbWaHBadZ79SiifWbosc1mpxMn4zapsEng82LWEKmXLlxvC+2cMHi8tSjXlROXPkMXguOgwyvdUzhaORI0hqVxzzyU7KMo5aFIg+tKTP3qJlErkjk0Vg1c2z6ZKBNwwZCJJVzJ83soXVh303/WNiC8pQjnlWWLj5E14CCS5iIgnLATOaV6WjVjbKs9ji2BM456oU18C6Nyncq0E8QTVlp+vQwNH9nsF2yaJmpDkcn3dnkGFjThH03/HOBdbP6q/BT629dbytnrnp+fTFzusTgXlQnB8xkqNcYR6s28yw7TPVHLzutvOLMt5fzj7nImmrEkfke8vvGStNnHTgOrH1ntE65o8GZ3xHJMcSnR8J8GDemL164pJx/7MX1zydvLkfVP8Xj6dJlfF2GQSET9RpVr5lMzLNh5pADDisvOPm15UVP+cNy6JInUUNOuyiamO8lv29cQVIyOQ7M3xkxAGgdOtkpV24cYxKkz4vVPfn89P3wZuBNed5Jv18OXryyKr4urFErg7zHfHDONMdgdowLFywqTzvmwvLys95WVi9/alWSeU+dYugCWDNxbdeJLFANfGRsBluVO1qdUzN7aF2MGKw+L4ZnabatXnFuufis+lvX0S8pC+fqn+Kz8Ta0EtSRtWwxU4VsQf3l4enlFWddVs496sX8hWJiedmACvboExE+MjUD5k71znJGUjERtM6Ok/B5sXoNR7MMb9K5R7+4XHzmm8vxK86zWo23oRvpR98tj2L35QceWV5y2uvK806sn7wD8MnbQ8NrV0DP7x+vTyotYsSEs4H1ZrhTubNBKiaC+PT0ZPJ5sj3ZCj/T8WMLf2jkz/S6CE8j7xEH2ffC7aYZffHckvLM4y4tF535lrLq4JOVejymTRHQ4xogFRODSNWToakZtUvxtINyTKcxJkHFWK+8Wr/vpi1x7Jkdecgp9Qv+LfWL/hVl0dyBvBceZNwW5mIop9ZfnS85+3L+tjZXf1vbI9Mmer1mvxaI3YPOc0KVZIzkyPyd4Y6a2UPrYsSgQIY2D6Zt6nXJPTO8mWfVN/WS+vP+lMN/pSrj9TFbUI446Pjym2e8sVyw+nfKkkX1zzGPx/hmAEHs6PcN19CZiMAeYkxH5schOiVmxxCdlUsTcSpWTSnX3vUlbLRPtpN3zJ0ft+F/gPzV419VXnr6H5eVS4+rSuyyi3/ZhdyFp7+hHMbcXhheJwH6/Ur0WQffv+s6IXo6MjdDnQ1mx/Bo3xHxiQhec+enyxXXvbOs2/iDWrB3VrfhKO6dPemgE/j0n3Nk/VNzNfwou+Tsd/hTsw+G10mAfr8aKZm+f9cNk5ZHxmbo51pwGGMSVIwFygeHXsrmbevL127+x/KF6/+6bNx2Jy7xOE0XwbivtuoQfCnX35aWHFm/rA+UuA/G1417w2sldaciC1TjvBIt2acYRsZmsKt2DEF5xKBCUZqeCj8ZTIJEuXvrTeXTa/6sfOe2j5SHHtkqcQ/My+fR5m/HPflENA8xHIBEt5BMnww4usVJ72wTGxWK0tj/GnPKJEgov2tnWXvvt8onrn1HWXPP18rOOn8si+XzZ/O3o16jX28jJRMjJkGIComqM8P80PTJgKNbnOhJd/skJockYhDlWUtrLGzfua1cffsV5VNr/rTctfl6JP4fjTcyL8bXVvfzS23kyySpjkSFRM0j5Hs1Mn9nuGMKGhWjQPngbI8azS3UJV2Db9p2b/nCDX9TvnTj3/G/GPBzt3p5D/NifFk4SMz1uiDgUEJ5UXHUZR9b+85Qi+ERgwJpDX2NrnYSzKsIgSgpngaq5O33r6nfJ+8uV//0ivLwjgdR9fMx3sA8ml9DJwJ7iHlaA6X9vjlm3cj8yegddbtNnIpVo3l0tZNgXkUIREkiZK2nWHbs3FGuu+cr9fvk7WXt+m9V/bG/T37hxtcA9tcmMQjRU1Kvl3Q+3sux+ZPBdtkhdB93U2U9zqSPEk0CSD0pjBSUh+on49vrPlw+9eP3lLu33EjtCWt+Lf21YWyiaZnU6yWdj/dvbJNPBpC7p85mzzkubmTsRKdTOBqpmi6otvHBO8uV17+/3Hrf/7JuPmxX/fO89pqf/XCvev3YVZQz2afIN3bXEnFsbIZaByrM3WM/0dXQXK7AQyN7n6gU1+Kw6KwS2VyH7xDw3i23OrFvpuuNrrUXdu/WW3TP4djTiO17ul6VOghB2rg+m5oRnWLXgtJqPxlzyiRIMK8iBKKkIE+mtY9EZ5XI5rqo+f5dV9Zfhd9T34S9bwoa0a63l/bA9o3l67f+c/n02r/wPeNGgyxp5HvViHwdUctTlGMYmj8Z3dVNEIMYXe5aWhOCvUmJWqY9aBG0eSd34D4LygELl5b7Hvxp+dza95av3/JPZevDG12454Y3gHvupX3/rs+Vj197Wblpw3fqLvUN5L3zRhMVErz3oPLtfWNBOGcD8ycDjcIgzvao0dwCX2xodGwHCUcjR1LXCyqPeeQzn33875bzj7ukLKpNueW+/6m/dV1evnfnZ8sjO7dr/R7Ygl3+ZPiSe2q3bPhu+fAP31S+e/unyvYdD7V75L0jxn6kYnHqWhLUGji1kbVPRu9ePdy1ToJ5FSEQJYmQg4iCcsBM5pXpaNWDv6M47YjnlB27ttdmXFk+/qPLys0brq4V0xc0sdhseumZtqF+Ej9bfxx99dYP1h9P99V1dWE4Ngk01ntuRKA41wzciXhvs00/GTjctU6CeRUhECWJkLWeYiVVO2Am88p0tOpm+AugZ63+Lf6d95GHnFwefGRT+Ub9Gf7Zte8r6x9Y56p9swe2byrf/Mm/ln+/7t3l7q038155H/EaGiF6StY6pn33jkUUhEvjgFomhzb9ZIziTPoo0SSA1JPCSIESpJCpHbiK9ZrNthVLji4vPvV15ddPeg3//hu/3Xzmx39evnnrv/DN3BvbufOR8sO7/qN+L7yt3Ij/kOMC/fOMuOcg70gT0zKJ+zadH79/cmkuVm5kbIa6G65576w0J6o8plM4GqmaLiCVD/J6+eCc6TbOMvzjOpee/c7yjGMu4j/jdOOGb/NL9gf1t68d4++T2CbuIdlPNn6vfKz+6f/qO66o3wsPqxT3gFrfG9fRmexT5Bu7a0lQ+8Gl5VrsNzQ2I3dXc6IGHhrZ+0SluBaHRWeVyOY6hXFkLdtwNsvwz75ees47+C9x4kv9mjs+Uz5x3eX1D43XuKJabJPu5b5td9Q/XP5l+crNHyhbt+O/QletDiICe4jhACR6vWvqIARpg3o6tKjx61U4sfTJEDUnauCBgigpyJNpKFrHCIES2VwXNTpCY7qNnY9uSxcdWn/relW56Iw/KUccfELZ8vCG8tVbPli/T97LL+O+za6y7ZEt5ap1HyqfXPOucufmG6pSj5pnSSNGTIIQFRJVZ4ZEHnuoTnMkWZAYNawIaWLTT0Z0LTwEe5MStUx70CJo807uwH1QzxkdpmVtxvyeGv4BgwtPe3153omv5j/+eU/9Ev7kmneX79/9eebv3nJT/ZF0WVm7/pt8I7A1dg9iEKmORIVEzSMUlW/vGwvCLZB4LYo91Xxk008GY7cOMXppjc766jgaOZK0RuUxj/yULOOoZaH0zOOxE1eeXy45+7Jy3lEvLYvmDij3bLkZO9c/PN5ZHt7xAK+ha/sKuAdOqJKMlayn4qgbu5YEtQYuLddiOozH5k8G4xp4oCBKEiEHEQXlgJnMK9PRqhtlWZ1dsae2cMEB5WnHvLT++eTy8uTlZ9dd6lG34tV1JiKwh5inNVAaRKA41wzcCdXwiqwLr2Pj2PzJYFwDDxRESSJkRKoHqdoBM5lXpqNVm3mWHRbcOzto8fJy+pN+re5Sj7oVr66zDroX3TPEIERPSa8FnefrJlEQLo0DajnXNRzS69g4tv7JCMcQQmWTALJ3lt1nGBQytQNXsV4zmZhnw8x8ma7tXRt1L7r3JpqWSa9lvfJ66kEUhEtzsXOxtntoGobWPxlunbqf6RSORqqmC0jlg/E0tYNzpjkGsw9z82PYDbfIPXEPnFAlU7JPkW/sriVB7QeXlmsxHcfD64+NzWBH3WqFQaXQRChqJiMESmRzncI4spYtZqqQReW4dt+Me9VBRGAPMRyARK/3Qh2EIG1QT4cWNbp/h/Q6jogwgqGpGWqZuua5yJNpKGomIwRKZHNd1OgIjek2itlhUdmV+TDuVQcRIyZBiAqJqjNDIl9H1PIU5RGDUcOKkOh1TGQQiYn5k+E2VncTB2QKB0ULpJDJHbgP6jmjw7Sszeyw4Cxl34171UHE2CamQiLu2a+BJ9bo1EC3QOK1Kva0eWgixLR2ZO2TwScBrin6mMiRjHpRecwjPyXLOGpZKPLQmpLWzpdxL+/LCyLWxeqpWJy6lgS1Bi4t12I6jTHJRKgYdza09snIDQMRBeWAmcwr09GqG2VZ7XFs2dQqcJcZ19prw17cDzQadQ8iAsW5ZuBOqIZ3yrrwOiYyiAQk1jeOrH8yBD496hpI1Q6YybwyHa3azLPsMNUrCnW8y3xY3Stei7eNlxJPK+m8nmQQBeHSOKCWc9+pQnodExlEAhLrRWvJ/MlQp9hdHGzb7M6OiXqNqtdMJubZMAObZrXX/Frdj1sGKxpx36bzfN0kCsKludi5WNs9NBGB4tiHCsloYGwGu4qjEV0LuoBUPoj84OCcaY7B7DlHH+2Ba4mlfPu2j5R1m/b+X7pphvvHxbCzLqHrNnbnpRtjbeRyLabjWPWIG2GMQZzScYyNzVDj3FFFCJTI5jqFcWQtW8xUIYvKrrYnkmNlKtj80Pry5Zv+vlx5/V+VTQ/d7cRemLZXiEvQ69WogxCktdrm0KKGdxgSvY4jInTQ5g5J7YVjbJNPhiMESmRzXdToCI3pNorZYVGZM3mXyCar93DXlhvKFde9o/zXun97XP/SzcC8tZ7KYI1AvE6eojxiMGpYERK9jokMIgGpMfYG27VHNuOTYYEUMtlRd1YdTmkGbWaHBadZ79Siifle8AJ+vP4b5aPXvrVcd+9X9+hfuhmYt2737NfAE9fQqYFugayVjj1tHpoIMa+tDsPUGq4Z9zA2fzLUqVmdZQdTfkqWcdSyUOShNWXmHjWTyBWJPMyHH3mQ3yX469U7N69lzaOZrul9ZjgKOluxtVyL6TTGJBOhYl28RtbtMa/psbEZrYXo3sjUQ/bTR6tulGW1x7FlU/lU1KgRIvSgAj5JJFL1MH2W+x+6p3z+hveXL974t/x/9tqdoZZr69CezsYoSO6EanhF1oXXMZFBJCCxfkjVBS3PNDfDfWI7h6YeuqM8WrWZZ9lhqlcUat+lZ5P5HvD0sKaClabPOmj1bZt+WK5Yc3n579s+yr/JGxtquJb1Wsy9ySiIokonVKNrOKTXMZFBJCCxXtQEjGtHvcapqRmps2OioxrVWc1kYp4NM7BpVntFNLF4ekhc0ytISqZXV+6sL/JH936Z3yf4Xsn/0g1quJb1Wsy9ySiIolbsnK+bPDQRgeLYhwqpCdjeN9fHsrGpGYPOciBbR+PgnGmOwew5Rx/tgWuJrkIRzPegp6dmYp3rRBaoxnkllMRvWv/5kw/V37zexd/AWM4lWqN1msdSDi3X6zQdx6pH3AhjDOKUPiXKVERQGZp/TNncSYVxZC1bzFQhi8qutieSY2UuGFCBnp5aWcEVJCUTgT3EcKBy40N3lM9d/77y5Zv/oX63rK+a6oJDh4brmF2i13FEhA7a3CGpvYKUXSd60tht2Ax3VmMcoUUvNYrZYVGZM3mXyCbTY4KAnp8eriCVFjFiEoSokKg6M5W3brymfOe2DzNWqeiCRFzH7BK9jokMIgGpMfYGdQ8i064TPWns5u8MjiQ6ihZGZ5FqaQZtZocFp1nv1KKJxWMTNZyKVEwMItWRqJCoeYTxdPL0JtA50C2Qvq6ZPTQRYl5bHYapNVwz3wPTgskicWTtOyM6OWX0EHMxe2hNmblHzSRyRSKPxqo1Os8JVZKxkvVUHHVj15Kg1sCl5VpMpzEmmQgVgzhDt8fc984KoOlYZI7MP6bYTx+9Z8PeZbXHret2CNylESL0oIL81LDS9JmIwB5intZAaRCB4lwzcCdUwyuyLryOiQwiAYn1Q6ouaFmMIhqIKsWhZnMz1KnoV/RMzLPsMNUrCrXv0rPJ9JgMnhpWmj7r4NWu64ToKem1oPPcm0RBuDQOqOVc13BIr2Mig0hAYr2oCRjXjnqNlQzajB4VoWYbfjLY4WEvh7NhBjbNaq+IJhZPD4lregVJyfRq1w2TlkmvZb3y3JtEQbg0FzsXa7uHJiJQHPtQITUBde0auz4vc5GpOs8mxma4r+5w9FKxZt1zjh5PhQ88DqKrUASLp4asmVjnOpEFqnFeiZbsU+Qbu2tJUPvBpeVaTMfx6PoUQgNxSp8SZSoirGsRq0wq9LGxGdGvYbdyD3s8VtsTybEyFwyoQE9PrazgCpKSicAeYjgAia61GLintUE9HVrU4IpNotdxRIQO2twhqb2ClF0negJGgtURdR9b+2SIfez9C4dFZc7oiGhiekwQ0PPTwxWk0iJGTIIQFRJVZ4ZEHnuoTnMkWZAYNawIiV7HRAaRgNQYe4Nx7agfLvMEjASrIwoPpZs/GbJJZwexbJz1M9KiiaWngzWcilRMDCLVkaiQqHmE8XTy9CbQOdAtkL6umT00EWJeWx2GqTVcM98D04LJIrMnckruXLK5nbt21NqFNUSnIfXeZa0pVeAxIgqDXJHIo7Fqjc5zQpVkrGQ9FUfd2LUkqDVwabkW02mMSSZCxSDO0O0x972zAmg6FmWqjgckH/h/PcB7n20O/wGu5UtW1TA6Fb2D4SmIyCq7XKNGiNCDCvJTw0rTZyICe4h5WgOlQQSKc83AnVANr8i68DomMogEJNYPqbqgZTGKaCCqFA9VKT23oKxccvTkP342t27zteXJK86oIXuYHIYeRhSqOts5MrSfcE0FK02fdfBq13VC9JT0WtB57k2iIFwaB9Ryrms4pNcxkUEkILFe1ASMa0e9xkoGbUaPiqEqped2leNXnFPw3mebW/uzq8rSxYeWE1fiP/Ce+ynLSu5sRBOLp4esFRVcQVIyvdp1w6Rl0mtZrzz3JlEQLs3FzsXa7qGJCBTHPlRITUBdu8auz8tcZKrOs5aSYx+Jp6w8vxx8wIqC9z7bgmWHHrbr4MWHlQuOvbQ8uP3+ctvGNfxrzB3x8wzt5yY2tBfzCVGn/w9XXJRPze7qwkIPi3W0vPDRTPndV+fM7vfr2dn5brP3ma3CpMzV72X8aMInAo246vaPl63bNzAXxmY4LqcdfkFZveyssvzAVVy83+bP8GWN7wj8aBp/IsIGzdhvv0gr5f8Aa1IaaOnf5PAAAAAASUVORK5CYII=;" vertex="1" parent="1">
          <mxGeometry x="250" y="435" width="67.94" height="70" as="geometry" />
        </mxCell>
        <mxCell id="vPUxcMvmtv4Ck2IGcJZG-19" style="edgeStyle=orthogonalEdgeStyle;rounded=0;orthogonalLoop=1;jettySize=auto;html=1;flowAnimation=1;" edge="1" parent="1" source="vPUxcMvmtv4Ck2IGcJZG-16" target="vPUxcMvmtv4Ck2IGcJZG-13">
          <mxGeometry relative="1" as="geometry">
            <Array as="points">
              <mxPoint x="470" y="550" />
              <mxPoint x="470" y="550" />
            </Array>
          </mxGeometry>
        </mxCell>
        <mxCell id="vPUxcMvmtv4Ck2IGcJZG-16" value="" style="sketch=0;outlineConnect=0;fontColor=#232F3E;gradientColor=none;fillColor=#ED7100;strokeColor=none;dashed=0;verticalLabelPosition=bottom;verticalAlign=top;align=center;html=1;fontSize=12;fontStyle=0;aspect=fixed;pointerEvents=1;shape=mxgraph.aws4.ecs_copilot_cli;" vertex="1" parent="1">
          <mxGeometry x="259.97" y="528" width="48" height="44" as="geometry" />
        </mxCell>
        <mxCell id="vPUxcMvmtv4Ck2IGcJZG-21" value="" style="edgeStyle=orthogonalEdgeStyle;rounded=0;orthogonalLoop=1;jettySize=auto;html=1;flowAnimation=1;" edge="1" parent="1" source="vPUxcMvmtv4Ck2IGcJZG-14" target="vPUxcMvmtv4Ck2IGcJZG-20">
          <mxGeometry relative="1" as="geometry">
            <mxPoint x="318" y="470" as="sourcePoint" />
            <mxPoint x="520" y="470" as="targetPoint" />
            <Array as="points" />
          </mxGeometry>
        </mxCell>
        <mxCell id="vPUxcMvmtv4Ck2IGcJZG-20" value="&lt;b&gt;AWS Provider&lt;/b&gt;" style="rounded=0;whiteSpace=wrap;html=1;fillColor=#d5e8d4;gradientColor=#97d077;strokeColor=#82b366;" vertex="1" parent="1">
          <mxGeometry x="400" y="455" width="90" height="30" as="geometry" />
        </mxCell>
      </root>
    </mxGraphModel>
  </diagram>
</mxfile>
